<?xml version="1.0" encoding="UTF-8" standalone="no"?><!DOCTYPE svg PUBLIC "-//W3C//DTD SVG 1.1//EN" "http://www.w3.org/Graphics/SVG/1.1/DTD/svg11.dtd"><svg width="100%" height="100%" viewBox="0 0 905 905" version="1.1" xmlns="http://www.w3.org/2000/svg" xmlns:xlink="http://www.w3.org/1999/xlink" xml:space="preserve" xmlns:serif="http://www.serif.com/" style="fill-rule:evenodd;clip-rule:evenodd;stroke-linejoin:round;stroke-miterlimit:2;"><g><path d="M405.395,141.147c1.241,8.09 2.566,16.723 3.847,25.37c2.771,18.658 5.571,37.304 8.15,55.975c2.354,17.058 4.537,34.145 6.604,51.25c2.404,19.879 4.65,39.775 6.862,59.67c2.005,18.046 3.963,36.096 5.746,54.171c1.496,15.167 2.721,30.35 4.009,45.521c1.625,19.004 3.504,37.983 4.712,57.004c1.208,19.096 1.671,38.234 2.579,57.346c1.525,32.442 3.167,64.904 4.696,97.35c0.604,12.796 0.542,25.638 1.638,38.404c1.816,21.029 4.137,42.029 6.575,63.017c1.987,17.1 3.995,34.217 6.825,51.221c2.929,17.55 6.845,34.958 10.333,52.425c0.571,-0.029 1.129,-0.059 1.7,-0.071c-0,-3.333 -0.142,-6.646 0.017,-9.979c1.466,-28.954 3.437,-57.909 4.362,-86.879c1.017,-31.788 1.05,-63.625 1.608,-95.429c0.905,-51.351 1.542,-102.717 3.021,-154.051c0.704,-23.925 3.121,-47.82 4.775,-71.729c0.513,-0.012 1.004,-0.041 1.513,-0.058l-0,22.121c0.575,0.017 1.133,0.017 1.704,0.029c0.129,-1.95 0.237,-3.896 0.367,-5.846l0.479,0l-0,226.767c0.091,-0 0.187,0.016 0.283,0.016c0.671,-18.574 1.354,-37.158 2.021,-55.729c0.35,0.042 0.7,0.088 1.054,0.146c0.65,-3.229 1.858,-6.458 1.875,-9.687c0.208,-47.029 0.429,-94.046 0.288,-141.079c-0.063,-20.796 0.112,-41.68 -1.625,-62.388c-1.971,-23.75 -5.934,-47.354 -9.038,-71.012c-0.875,-6.734 -1.783,-13.467 -1.275,-20.725c2.642,5.804 6.417,11.387 7.704,17.42c3.929,18.384 7.942,36.855 10.092,55.467c9.979,86.138 7.146,172.596 7.287,258.979c0.017,8.159 -0.016,16.304 -0.016,24.463c-0,0.654 0.162,1.321 0.271,2.225c2.229,-11.75 3.025,-23.546 6.862,-34.454c7.242,-20.575 15.533,-40.892 24.638,-60.846c17.204,-37.755 39.712,-73.034 61.375,-107.255c-0,-14.412 0.016,-27.762 -0,-41.125c-0.017,-18.05 0.604,-36.141 -0.225,-54.158c-1.559,-33.987 -3.28,-67.975 -6.271,-101.875c-1.75,-19.85 -6.238,-39.483 -9.121,-59.258c-1.525,-10.429 -2.258,-20.942 -3.342,-31.429c0.654,-0.117 1.292,-0.217 1.942,-0.334c4.058,14.934 8.437,29.784 12.067,44.804c3.229,13.409 5.966,26.95 8.241,40.517c1.85,10.938 2.788,22.004 3.967,33.042c1.908,17.887 3.804,35.775 5.458,53.691c1.609,17.338 3.359,34.671 4.217,52.038c0.683,14.092 0.146,28.225 1.179,42.637c25.625,-30.291 53.417,-58.358 82.588,-85.191c29.225,-26.875 59.258,-52.996 91.616,-76.8c32.042,-23.575 63.063,-48.413 99.446,-66.388c0.571,0.596 1.129,1.192 1.704,1.8c-6.175,6.371 -12.066,13.004 -18.575,19.084c-17.046,15.895 -34.254,31.675 -51.616,47.279c-28.73,25.796 -58.384,50.783 -86.3,77.291c-29.813,28.317 -58.288,57.838 -86.905,87.171c-9.42,9.659 -17.554,20.363 -26.15,30.688c-1.016,1.221 -1.75,2.996 -1.766,4.521c-0.159,10.004 -0.079,20.012 -0.079,31.745c61.77,-59.245 134.462,-96.983 221.729,-109.345c0.366,0.654 0.733,1.325 1.116,1.979c-6.733,2.833 -13.45,5.683 -20.2,8.491c-35.891,14.938 -72.116,29.334 -104.966,49.546c-9.98,6.138 -18.863,13.759 -27.917,21.729c20.642,-4.654 41.254,-7.808 62.425,-8.1c21.754,-0.291 42.254,4.784 62.837,10.471c-10.441,0 -20.883,0.146 -31.324,-0.029c-29.859,-0.508 -58.955,4.088 -87.192,12.404c-21.454,6.325 -40.888,16.421 -56.883,31.442c-5.955,5.6 -12.367,10.775 -16.696,14.529c-0.988,52.834 -1.925,103.342 -2.85,152.467c12.05,-19.692 25.004,-40.896 37.975,-62.113c-0.396,-0.35 -0.809,-0.7 -1.209,-1.033c-7.625,3.954 -15.245,7.913 -23.27,12.071c-0.796,-0.613 -1.78,-1.354 -2.896,-2.208c13.766,-13.759 29.604,-24.434 46.158,-34.425c5.204,-3.142 9.121,-8.159 13.321,-12.55c16.825,-17.613 33.204,-35.601 50.392,-52.909c10.345,-10.425 21.899,-19.85 32.916,-29.725c0.779,0.392 1.542,0.788 2.321,1.179c-0.396,1.571 -0.35,3.404 -1.254,4.684c-9.296,13.204 -18.784,26.291 -28.159,39.454c-10.091,14.162 -20.133,28.371 -30.162,42.567c-1.192,1.687 -2.225,3.475 -4.392,6.879c25.529,-1.005 48.975,2.4 71.863,14.5c-2.688,0.596 -3.9,1.204 -4.979,1.046c-25.913,-3.955 -51.7,-3.388 -77.117,2.691c-3.613,0.871 -7.496,3.925 -9.471,6.95c-16.967,26.063 -33.617,52.313 -50.167,78.588c-7.512,11.925 -14.866,23.937 -21.695,36.183c-2.213,3.958 -2.879,8.725 -3.646,13.221c-2.292,13.337 -4.313,26.7 -6.379,40.066c-0.225,1.396 -0.034,2.85 -0.034,5.771c3.088,-2.312 5.904,-3.458 7.084,-5.437c10.075,-16.725 25.291,-29.404 39.9,-42.479c15.966,-14.284 33.966,-26.238 52.937,-37.025c21.013,-11.955 42.738,-22.484 66.675,-28.621c12.496,-3.2 25.229,-5.659 37.867,-8.45c0.254,0.712 0.508,1.437 0.762,2.15c-5.745,2.737 -11.429,5.6 -17.254,8.175c-49.754,21.987 -93.283,51.7 -130.546,88.871c-16.345,16.304 -32.725,33.141 -42.083,53.737c-7.337,16.154 -11.204,33.621 -16.617,50.492c-0.445,1.408 -0.891,2.837 -1.479,4.712l-28.329,0c0.588,-12.187 1.146,-23.879 1.7,-35.587c-0.271,-0.042 -0.542,-0.071 -0.812,-0.117c-3.817,12 -7.638,24.013 -11.396,35.85l-44.184,0c11.367,-34.758 26.663,-67.45 44.584,-99.142c5.458,-9.654 12.158,-18.745 18.208,-28.125c0.875,-1.35 1.829,-2.908 1.942,-4.42c1.383,-18.73 2.529,-37.475 3.929,-56.209c2.246,-30.016 4.871,-60.016 6.862,-90.05c0.734,-11.037 0.113,-22.133 0.113,-34.637c-8.088,14.787 -16.554,28.05 -22.779,42.158c-12.396,28.038 -24.509,56.238 -34.888,84.929c-7.179,20.054 -11.3,40.984 -17.029,61.925c-7.512,41.242 -14.804,82.063 -22.175,123.263l-37.258,-0c-2.913,-12.679 -6.175,-25.142 -8.58,-37.75c-5.92,-31.021 -12.716,-61.967 -16.775,-93.208c-4.729,-36.43 -7.641,-73.092 -10.029,-109.725c-2.529,-38.771 -3.375,-77.613 -5.204,-116.43c-1.354,-28.575 -2.642,-57.166 -4.837,-85.7c-2.355,-30.554 -5.78,-61.05 -8.675,-91.579c-2.434,-25.533 -4.538,-51.116 -7.259,-76.637c-1.908,-17.888 -4.662,-35.717 -7.004,-53.563c-2.529,-19.137 -4.917,-38.304 -7.575,-57.429c-1.87,-13.397 -3.964,-26.765 -6.046,-40.36c3.527,-0.15 6.267,-0.044 10.062,1.057Zm32.034,394.57l0,-30.963l-0.062,0c-0,10.15 -0,20.304 0.062,30.963Zm173.871,-97.554l0,-24.505l-0.271,0l0,26.584l0.159,-0c0.05,-0.463 0.083,-0.929 0.112,-2.079Zm-169.7,158.779l0,-2.734l-0.571,0l0,28.984l0.604,-0c0,-8.45 0,-16.9 -0.033,-26.25Zm65.942,-113.854l-0,-44.155c-0.429,0.017 -0.859,0.017 -1.288,0.03l0,148.295l1.271,0c0.017,-34.366 0.017,-68.716 0.017,-104.17Zm-17.029,44.658l-0,-23.921l-0.671,0l-0,54.054l0.716,0c0,-9.671 0,-19.341 -0.045,-30.133Zm16.408,83.708l-0,10.792l0.508,-0l0,-30.408l-0.508,-0c-0.017,6.166 -0.017,12.345 -0,19.616Zm10.379,124.284l0,-42.13l-1.05,0l0,72.992c0.333,0.013 0.683,0.013 1.017,0.029c-0.017,-9.962 -0.017,-19.941 0.033,-30.891Zm18.237,-58.721c-3.5,16.096 -7.016,32.196 -10.52,48.296c9.966,-22.98 18.829,-46.059 28.029,-69.021c13.229,-33 29.954,-64.554 48.162,-95.459c7.388,-12.537 13.15,-25.045 9.725,-40.387c-4.166,5.612 -8.658,10.442 -11.666,15.942c-11.459,20.954 -23.605,41.691 -33.313,63.333c-11.221,25.042 -20.133,50.912 -30.417,77.296Zm-48.033,-38.671l0,23.792l0.271,-0l0,-37.113l-0.321,0c0,4.071 0,8.142 0.05,13.321Z" style="fill:#9e7202;fill-opacity:0.76;"/><path d="M395.333,140.09c-0.4,-2.607 -0.799,-5.223 -1.195,-7.848c-16.838,0.2 -28.859,-7.942 -38.725,-18.863c-4.488,-4.975 -8.071,-11.008 -10.488,-17.104c-6.367,-16.1 -11.892,-32.475 -17.842,-49.054c19.275,8.071 37.225,17.454 53.271,32.358c-1.287,-8.929 -2.325,-16.083 -3.325,-23.062c-7.466,-2.85 -9.725,-7.55 -8.454,-16.959c0.654,-4.741 1.321,-9.483 1.975,-14.137c-8.054,-5.713 -15.375,-11.184 -10.458,-21.421c2.45,-5.104 6.925,-4.083 11.271,-3.517c7.891,8.229 7.908,10.659 3.308,20.634c-1.4,3.041 -0.221,7.1 -0.221,10.558c10.188,4.246 13.163,11.475 12.221,20.462c-4.95,5.367 -4.567,19.225 0.908,34.671c8.292,-21.187 22.013,-39.033 37.659,-55.729c0.541,0.163 1.1,0.321 1.641,0.479c0,17.613 -0.016,35.209 0,52.821c0.013,10.863 -1.783,21.438 -8.533,30.571c-3.9,5.262 -9.054,9.742 -14.579,15.546c0.517,3.405 1.064,6.972 1.628,10.651c-3.795,-1.101 -6.535,-1.207 -10.062,-1.057Z" style="fill:#cc7229;"/><path d="M313.092,332.422l-0,-3.693c-11.554,-0.379 -21.967,-4.187 -30.417,-11.65c-4.346,-3.825 -8.021,-8.304 -11.746,-12.667c-4.837,-5.641 -9.437,-11.445 -13.575,-18.454c2.146,0.321 4.409,0.334 6.396,1.017c8.229,2.821 16.329,5.95 24.575,8.725c3.183,1.079 6.604,1.529 11.017,2.504c-2.867,-5.587 -4.425,-10.429 -7.579,-14.15c-2.275,-2.679 -7.017,-3.479 -10.025,-5.804c-3.63,-2.821 -7.625,-5.921 -9.584,-9.7c-5.316,-10.283 -9.675,-20.971 -14.308,-31.542c-0.429,-0.962 -0.063,-2.212 -0.063,-4.291c14.067,7.345 26.167,15.108 35.017,26.291c3.8,4.817 5.075,10.429 4.104,16.713c-0.604,3.883 0.638,8.141 1.734,12.071c1.066,3.825 3.008,7.445 5.395,11.05c-0.65,-27.225 -1.304,-54.463 -1.987,-82.355c-5.888,-1.425 -8.883,-5.279 -9.358,-11.025c-0.446,-5.308 3.245,-9.741 8.704,-9.991c4.95,-0.217 8.708,3.333 8.421,8.641c-0.221,4.159 -1.242,8.275 -3.313,12.259l0,11.4c4.6,-3.446 8.404,-6.284 13.421,-10.034c-0.604,10.442 -0.4,19.925 -2.088,29.113c-0.683,3.712 -5.504,6.779 -8.641,10.371l-0,34.483c0.491,0.083 0.987,0.188 1.462,0.275c4.729,-8.437 9.471,-16.883 14.471,-25.654c7.608,-10.804 16.25,-20.217 28.583,-27.938c0,4.8 0.096,8.771 -0.012,12.755c-0.304,10.033 -0.4,20.1 -1.163,30.104c-0.875,11.504 -3.12,22.804 -10.808,32.416c-2.721,3.405 -6.062,6.4 -9.408,9.846c11.304,-2.037 22.283,-5.016 33.791,-2.925c0.734,2.067 1.384,3.609 1.817,5.209c1.892,6.92 -0.271,10.295 -7.608,12.416c-9.663,2.796 -18.721,1.413 -27.409,-2.966c-4.3,-9.584 -4.3,-9.584 -11.7,-6.513c-0.813,3.556 0.053,6.318 1.672,8.749c-2.776,-1.271 -5.944,-2.877 -9.788,-5.056Z" style="fill:#cc7229;"/><path d="M322.88,337.478c2.023,3.037 5.219,5.556 7.783,8.455c8.07,9.134 16.712,18.105 22.904,28.271c8.246,13.554 15.312,27.879 21.171,42.438c6.65,16.562 12.125,33.591 16.82,50.708c5.588,20.433 10.317,41.1 14.405,61.837c2.691,13.642 4.029,27.542 5.237,41.388c2.258,25.683 4.554,51.379 5.792,77.121c1.241,25.812 1.591,51.687 1.687,77.542c0.225,56.762 0.034,113.52 0.017,170.3l-0,6.962l-47.763,0c-7.054,-35.775 -14.054,-71.329 -21.075,-106.887c-0.316,-0 -0.62,0.012 -0.937,0.012c1.079,35.383 2.162,70.767 3.262,106.846l-54.15,-0c-10.804,-43.683 -25.416,-86.15 -48.812,-125.883c6.983,41.77 9.754,83.666 7.604,125.9l-23.808,-0c-0.446,-9.263 -0.846,-17.817 -1.292,-26.355c-1.242,-23.02 -1.908,-46.07 -3.962,-69.033c-1.542,-17.117 -4.934,-34.087 -7.434,-51.146c-1.016,-6.966 -6.954,-10.604 -12.016,-14.571c-18.192,-14.266 -39.68,-22.775 -62.071,-30.091c-32.184,-10.513 -65.371,-13.25 -99.146,-13.304c-15.313,-0.03 -30.258,-2.534 -44.675,-7.392c-0.654,-0.217 -1.229,-0.625 -2.421,-1.233c10.138,-1.63 19.642,-2.85 28.983,-4.73c23.988,-4.795 48.242,-7.137 72.709,-5.408c29.616,2.108 57.696,9.642 83.271,23.75c10.25,5.654 19.866,12.271 30.1,18.671c-1.48,-6.833 -2.788,-14.075 -4.634,-21.204c-3.629,-13.988 -7.671,-27.892 -11.283,-41.884c-1.367,-5.308 -4.442,-8.9 -9.296,-12.129c-20.45,-13.566 -43.483,-21.825 -67.308,-28.85c-11.829,-3.491 -23.225,-8.233 -34.746,-12.566c-1.625,-0.609 -2.817,-2.18 -3.804,-3.825c33.979,2.329 67.15,6.545 98.921,21.7c-0.638,-3.475 -0.796,-5.759 -1.484,-7.9c-2.433,-7.546 -5.029,-15.034 -7.591,-22.555c-1.305,-3.854 -4.155,-5.904 -8.513,-6.85c-30.467,-6.629 -61.087,-6.716 -91.837,-2.12c-13.338,1.991 -26.68,4.012 -39.984,6.162c-3.471,0.571 -6.812,1.717 -10.616,2.692c2.02,-6.6 42.479,-22.892 65.608,-27.442c24.429,-4.813 48.8,-6.138 73.646,0.292c-25.371,-61.255 -60.371,-117.755 -84.071,-178.646c0.7,-0.409 1.383,-0.829 2.083,-1.238c3.138,3.521 6.796,6.763 9.313,10.617c16.171,24.754 32.996,49.2 47.875,74.608c17.841,30.45 34.35,61.571 50.537,92.796c3.534,6.804 8.417,10.15 15.104,13.425c13.542,6.646 26.546,14.192 39.821,21.275c2.088,1.104 4.471,1.717 8.009,1.775c-44.634,-59.683 -89.263,-119.371 -133.875,-179.067c0.333,-0.379 0.683,-0.741 1.02,-1.12c4.488,3.3 9.213,6.354 13.4,9.962c11.08,9.554 22.521,18.846 32.692,29.171c15.517,15.75 30.671,31.867 44.9,48.587c17.508,20.567 34.333,41.638 50.696,62.971c21.121,27.546 40.204,56.255 56.596,86.417c5.508,10.121 11.208,20.154 16.775,30.263c0.733,1.337 1.196,2.808 2.579,4.158c-0.492,-5.379 -1.129,-10.763 -1.446,-16.142c-1.642,-28.229 -3.137,-56.454 -4.775,-84.683c-1.562,-26.863 -3.233,-53.708 -4.842,-80.567c-1.254,-21.087 -2.291,-42.187 -3.804,-63.262c-1.587,-22.221 -3.737,-44.413 -5.441,-66.621c-0.955,-12.363 -1.522,-24.754 -2.36,-38.871c0.054,0.024 0.109,0.047 0.164,0.071l-0,-8.624c3.844,2.179 7.012,3.785 9.788,5.056Zm-30.147,480.53c-3.308,-9.95 -5.966,-20.141 -10.058,-29.812c-9.121,-21.538 -18.654,-42.963 -28.65,-64.179c-5.221,-11.096 -11.729,-21.696 -17.808,-32.446c-0.734,-1.308 -2.455,-2.15 -4.109,-3.534c-0.254,1.267 -0.475,1.659 -0.383,1.98c4.937,15.954 9.329,31.979 9.983,48.704c0.125,3.329 1.254,7.037 3.213,9.8c3.9,5.512 8.404,10.733 13.196,15.633c10.425,10.692 16.154,23.692 22.395,36.488c3.292,6.779 6.667,13.512 9.755,21.029c2.341,6.762 4.679,13.525 7.02,20.287c0.525,-0.116 1.05,-0.233 1.559,-0.346c-0.317,-7.912 -2.867,-15.387 -6.113,-23.604Zm101.246,-35.616l0,-21.638l-0.604,0l-0,60.133l0.621,0c-0,-12.45 -0,-24.912 -0.017,-38.495Zm-3.408,-94.53c0.096,1.192 0.192,2.4 0.225,2.821l-0,-57.575c-0.079,0 -0.159,0 -0.225,0.017l-0,54.737Zm2.308,67.584l0,-58.492l-0.746,0l0,58.492l0.746,-0Zm-78.292,-56.429c-1.545,-2.95 -3.087,-5.905 -4.633,-8.855c-0.604,0.146 -1.208,0.305 -1.812,0.45c8.466,27.967 16.92,55.946 25.387,83.913c0.638,-0.146 1.254,-0.292 1.892,-0.438c-2.467,-25.712 -10.725,-50.158 -20.834,-75.07Zm64.317,-243.488c-1.446,-3.667 -3.071,-7.287 -4.296,-11.012c-2.675,-8.084 -4.554,-16.446 -7.862,-24.3c-5.509,-13.017 -11.809,-25.755 -17.988,-38.538c-1.112,-2.3 -3.133,-4.233 -4.775,-6.312c-2.321,-2.938 -4.837,-5.746 -7.016,-8.784c-4.567,-6.383 -8.963,-12.871 -13.434,-19.312c0.221,17.116 1.846,33.521 3.246,49.925c2.529,29.596 5.188,59.175 7.292,88.783c1.971,27.779 3.325,55.583 4.866,83.388c1.834,33.216 3.521,66.433 5.396,99.65c0.575,10.004 0.304,20.241 2.613,29.929c4.983,20.808 11.587,41.287 17.158,61.979c5.763,21.437 11.429,42.904 16.488,64.483c4.125,17.613 7.275,35.4 10.95,53.504c0.433,-4.887 1.195,-9.454 1.145,-14.02c-0.158,-16.534 -0.604,-33.067 -0.92,-49.605c-0.413,-20.445 -0.621,-40.908 -1.275,-61.354c-1.559,-49.621 -3.184,-99.229 -5.142,-148.833c-0.446,-11.458 -1.971,-22.904 -3.579,-34.292c-2.1,-14.804 -4.792,-29.55 -7.196,-44.325c-0.842,-5.179 -1.35,-10.412 -2.45,-15.533c-1.862,-8.654 -4.075,-17.246 -6.142,-25.871c-0.083,-0.308 -0.241,-0.596 -0.495,-1.179c-0.384,0.583 -0.621,1.004 -0.909,1.396c-0.046,0.058 -0.283,0.016 -0.779,0.016c-1.879,-8.525 -3.788,-17.087 -5.679,-25.641c0.683,-0.146 1.35,-0.304 2.033,-0.45c0.4,0.566 0.813,1.133 1.213,1.7c9.42,13.729 14.037,29.187 18,44.679c4.408,17.204 8.516,34.567 10.87,52.075c3.759,27.954 6.925,56.021 8.563,84.117c2.15,36.954 2.721,73.979 3.692,110.975c0.637,23.779 0.783,47.587 1.133,71.362c1.4,-2.354 1.4,-4.712 1.4,-7.067c0.017,-42.245 0.175,-84.479 0,-126.725c-0.079,-18.775 -0.413,-37.579 -1.383,-56.325c-1.021,-19.82 -2.9,-39.616 -4.425,-59.425c-0.909,-11.808 -1.196,-23.687 -2.946,-35.395c-2.546,-16.871 -6.158,-33.609 -9.342,-50.392c-1.308,-6.879 -2.483,-13.771 -4.058,-20.592c-0.892,-3.866 -2.471,-7.604 -3.854,-11.825c-0.017,-0.012 -0.492,0 -0.113,-0.854Zm-100.383,219.288c-1.384,-3.255 -2.45,-6.659 -4.234,-9.725c-5.954,-10.255 -11.604,-20.713 -18.433,-30.455c-9.15,-13.075 -23.362,-21.479 -36.862,-30.32c-5.65,-3.709 -12.238,-6.225 -20.005,-10.067c6.684,17.788 11.809,34.437 19.338,50.117c3.758,7.808 11.808,13.933 18.129,20.679c15.758,16.825 29.525,34.875 38.996,55.321c7.208,15.591 13.862,31.412 20.292,47.291c5.333,13.15 10.283,26.442 14.804,39.834c3.612,10.704 6.316,21.67 9.421,32.52c0.67,-1.195 0.829,-2.312 0.637,-3.391c-2.342,-13.188 -4.058,-26.525 -7.275,-39.542c-6.7,-27.079 -13.958,-54.054 -21.454,-80.958c-3.788,-13.625 -8.563,-27.021 -13.354,-41.304Z" style="fill:#9e7202;fill-opacity:0.76;"/><path d="M312.552,340.815c-8.936,15.32 -23.172,12.235 -36.814,11.543c-2.755,-5.291 -6.305,-9.916 -0.446,-15.791c12.331,-3.196 24.727,-1.067 37.26,4.248Z" style="fill:#9e7202;fill-opacity:0.76;"/><path d="M312.928,340.975c-0.126,-0.054 -0.251,-0.107 -0.376,-0.16c0.111,-0.191 0.222,-0.385 0.331,-0.582c0.015,0.248 0.03,0.495 0.045,0.742Z" style="fill:#9e7202;fill-opacity:0.76;"/><path d="M179.488,811.538c18.545,28.72 35.575,57.587 41.733,91.125l-18.7,-0c-23.559,-79.942 -77.625,-141.634 -140.892,-197.971c51.617,23.966 88.288,61.821 117.858,106.846Z" style="fill:#9e7202;fill-opacity:0.76;fill-rule:nonzero;"/></g></svg>