<svg width="100%" height="100%" viewBox="0 0 217 217" version="1.1" xmlns="http://www.w3.org/2000/svg" xmlns:xlink="http://www.w3.org/1999/xlink" xml:space="preserve" xmlns:serif="http://www.serif.com/" style="fill-rule:evenodd;clip-rule:evenodd;stroke-linejoin:round;stroke-miterlimit:2;">


<g>
<path fill="#CF7110" d="M128.82,187.01c-1.803,9.898 -3.553,19.695 -5.322,29.583l-8.942,0c-0.699,-3.043 -1.482,-6.034 -2.059,-9.06c-1.421,-7.445 -3.052,-14.872 -4.026,-22.37c-1.135,-8.743 -1.834,-17.542 -2.407,-26.334c-0.607,-9.305 -0.81,-18.627 -1.249,-27.943c-0.325,-6.858 -0.634,-13.72 -1.161,-20.568c-0.565,-7.333 -1.387,-14.652 -2.082,-21.979c-0.584,-6.128 -1.089,-12.268 -1.742,-18.393c-0.458,-4.293 -1.119,-8.572 -1.681,-12.855c-0.607,-4.593 -1.18,-9.193 -1.818,-13.783c-0.535,-3.832 -1.146,-7.654 -1.738,-11.57c-4.041,0.048 -6.926,-1.906 -9.294,-4.527c-1.077,-1.194 -1.937,-2.642 -2.517,-4.105c-1.528,-3.864 -2.854,-7.794 -4.282,-11.773c4.626,1.937 8.934,4.189 12.785,7.766c-0.309,-2.143 -0.558,-3.86 -0.798,-5.535c-1.792,-0.684 -2.334,-1.812 -2.029,-4.07c0.157,-1.138 0.317,-2.276 0.474,-3.393c-1.933,-1.371 -3.69,-2.684 -2.51,-5.141c0.588,-1.225 1.662,-0.98 2.705,-0.844c1.894,1.975 1.898,2.558 0.794,4.952c-0.336,0.73 -0.053,1.704 -0.053,2.534c2.445,1.019 3.159,2.754 2.933,4.911c-1.188,1.288 -1.096,4.614 0.218,8.321c1.99,-5.085 5.283,-9.368 9.038,-13.375c0.13,0.039 0.264,0.077 0.394,0.115c-0,4.227 -0.004,8.45 -0,12.677c0.003,2.607 -0.428,5.145 -2.048,7.337c-0.936,1.263 -2.173,2.338 -3.499,3.731c0.397,2.614 0.867,5.626 1.314,8.645c0.665,4.478 1.337,8.953 1.956,13.434c0.565,4.094 1.089,8.195 1.585,12.3c0.577,4.771 1.116,9.546 1.647,14.321c0.481,4.331 0.951,8.663 1.379,13.001c0.359,3.64 0.653,7.284 0.962,10.925c0.39,4.561 0.841,9.116 1.131,13.681c0.29,4.583 0.401,9.176 0.619,13.763c0.366,7.786 0.76,15.577 1.127,23.364c0.145,3.071 0.13,6.153 0.393,9.217c0.436,5.047 0.993,10.087 1.578,15.124c0.477,4.104 0.959,8.212 1.638,12.293c0.703,4.212 1.643,8.39 2.48,12.582c0.137,-0.007 0.271,-0.014 0.408,-0.017c0,-0.8 -0.034,-1.595 0.004,-2.395c0.352,-6.949 0.825,-13.898 1.047,-20.851c0.244,-7.629 0.252,-15.27 0.386,-22.903c0.217,-12.324 0.37,-24.652 0.725,-36.972c0.169,-5.742 0.749,-11.477 1.146,-17.215c0.123,-0.003 0.241,-0.01 0.363,-0.014l0,5.309c0.138,0.004 0.272,0.004 0.409,0.007c0.031,-0.468 0.057,-0.935 0.088,-1.403l0.115,0l-0,54.424c0.022,0 0.045,0.004 0.068,0.004c0.161,-4.458 0.325,-8.918 0.485,-13.375c0.084,0.01 0.168,0.021 0.253,0.035c0.156,-0.775 0.446,-1.55 0.45,-2.325c0.05,-11.287 0.103,-22.571 0.069,-33.859c-0.015,-4.991 0.027,-10.003 -0.39,-14.973c-0.473,-5.7 -1.424,-11.365 -2.169,-17.043c-0.21,-1.616 -0.428,-3.232 -0.306,-4.974c0.634,1.393 1.54,2.733 1.849,4.181c0.943,4.412 1.906,8.845 2.422,13.312c2.395,20.673 1.715,41.423 1.749,62.155c0.004,1.958 -0.004,3.913 -0.004,5.871c0,0.157 0.039,0.317 0.065,0.534c0.535,-2.82 0.726,-5.651 1.647,-8.269c1.738,-4.938 3.728,-9.814 5.913,-14.603c4.129,-9.061 9.531,-17.528 14.73,-25.741c-0,-3.459 0.004,-6.663 -0,-9.87c-0.004,-4.332 0.145,-8.674 -0.054,-12.998c-0.374,-8.157 -0.787,-16.314 -1.505,-24.45c-0.42,-4.764 -1.497,-9.476 -2.189,-14.222c-0.366,-2.503 -0.542,-5.026 -0.802,-7.543c0.157,-0.028 0.31,-0.052 0.466,-0.08c0.974,3.584 2.025,7.148 2.896,10.753c0.775,3.218 1.432,6.468 1.978,9.724c0.444,2.625 0.669,5.281 0.952,7.93c0.458,4.293 0.913,8.586 1.31,12.886c0.386,4.161 0.806,8.321 1.012,12.489c0.164,3.382 0.035,6.774 0.283,10.233c6.15,-7.27 12.82,-14.006 19.821,-20.446c7.014,-6.45 14.222,-12.719 21.988,-18.432c7.69,-5.658 15.135,-11.619 23.867,-15.933c0.137,0.143 0.271,0.286 0.409,0.432c-1.482,1.529 -2.896,3.121 -4.458,4.58c-4.091,3.815 -8.221,7.602 -12.388,11.347c-6.895,6.191 -14.012,12.188 -20.712,18.55c-7.155,6.796 -13.989,13.881 -20.857,20.921c-2.261,2.318 -4.213,4.887 -6.276,7.365c-0.244,0.293 -0.42,0.719 -0.424,1.085c-0.038,2.401 -0.019,4.803 -0.019,7.619c14.825,-14.219 32.271,-23.276 53.215,-26.243c0.088,0.157 0.176,0.318 0.268,0.475c-1.616,0.68 -3.228,1.364 -4.848,2.038c-8.614,3.585 -17.308,7.04 -25.192,11.891c-2.395,1.473 -4.527,3.302 -6.7,5.215c4.954,-1.117 9.901,-1.874 14.982,-1.944c5.221,-0.07 10.141,1.148 15.081,2.513c-2.506,-0 -5.012,0.035 -7.518,-0.007c-7.166,-0.122 -14.149,0.981 -20.926,2.977c-5.149,1.518 -9.813,3.941 -13.652,7.546c-1.429,1.344 -2.968,2.586 -4.007,3.487c-0.237,12.68 -0.462,24.802 -0.684,36.592c2.892,-4.726 6.001,-9.815 9.114,-14.907c-0.095,-0.084 -0.194,-0.168 -0.29,-0.248c-1.83,0.949 -3.659,1.899 -5.585,2.897c-0.191,-0.147 -0.427,-0.325 -0.695,-0.53c3.304,-3.302 7.105,-5.864 11.078,-8.262c1.249,-0.754 2.189,-1.958 3.197,-3.012c4.038,-4.227 7.969,-8.544 12.094,-12.698c2.483,-2.502 5.256,-4.764 7.9,-7.134c0.187,0.094 0.37,0.189 0.557,0.283c-0.095,0.377 -0.084,0.817 -0.301,1.124c-2.231,3.169 -4.508,6.31 -6.758,9.469c-2.422,3.399 -4.832,6.809 -7.239,10.216c-0.286,0.405 -0.534,0.834 -1.054,1.651c6.127,-0.241 11.754,0.576 17.247,3.48c-0.645,0.143 -0.936,0.289 -1.195,0.251c-6.219,-0.949 -12.408,-0.813 -18.508,0.646c-0.867,0.209 -1.799,0.942 -2.273,1.668c-4.072,6.255 -8.068,12.555 -12.04,18.861c-1.803,2.862 -3.568,5.745 -5.207,8.684c-0.531,0.95 -0.691,2.094 -0.875,3.173c-0.55,3.201 -1.035,6.408 -1.531,9.616c-0.054,0.335 -0.008,0.684 -0.008,1.385c0.741,-0.555 1.417,-0.83 1.7,-1.305c2.418,-4.014 6.07,-7.057 9.576,-10.195c3.832,-3.428 8.152,-6.297 12.705,-8.886c5.043,-2.869 10.257,-5.396 16.002,-6.869c2.999,-0.768 6.055,-1.358 9.088,-2.028c0.061,0.171 0.122,0.345 0.183,0.516c-1.379,0.657 -2.743,1.344 -4.141,1.962c-11.941,5.277 -22.388,12.408 -31.331,21.329c-3.923,3.913 -7.854,7.954 -10.1,12.897c-1.761,3.877 -2.689,8.069 -3.988,12.118c-0.107,0.338 -0.214,0.681 -0.355,1.131l-6.799,-0c0.141,-2.925 0.275,-5.731 0.408,-8.541c-0.065,-0.01 -0.13,-0.017 -0.195,-0.028c-0.916,2.88 -1.833,5.763 -2.735,8.604l-10.604,-0c2.728,-8.342 6.399,-16.188 10.7,-23.794c1.31,-2.317 2.918,-4.499 4.37,-6.75c0.21,-0.324 0.439,-0.698 0.466,-1.061c0.332,-4.495 0.607,-8.994 0.943,-13.49c0.539,-7.204 1.169,-14.404 1.647,-21.612c0.176,-2.649 0.027,-5.312 0.027,-8.313c-1.941,3.549 -3.973,6.732 -5.467,10.118c-2.975,6.729 -5.882,13.497 -8.373,20.383c-1.723,4.813 -2.712,9.836 -4.087,14.862Zm-0.291,-24.526c-0.84,3.863 -1.684,7.727 -2.525,11.591c2.392,-5.515 4.519,-11.054 6.727,-16.565c3.175,-7.92 7.189,-15.493 11.559,-22.91c1.773,-3.009 3.156,-6.011 2.334,-9.693c-1,1.347 -2.078,2.506 -2.8,3.826c-2.75,5.029 -5.665,10.006 -7.995,15.2c-2.693,6.01 -4.832,12.219 -7.3,18.551Zm-6.719,-46.543l0,-10.597c-0.103,0.004 -0.206,0.004 -0.309,0.007l-0,35.591l0.305,-0c0.004,-8.248 0.004,-16.492 0.004,-25.001Zm2.342,60.636l-0,-10.111l-0.252,-0l-0,17.518c0.08,0.003 0.164,0.003 0.244,0.007c-0.004,-2.391 -0.004,-4.786 0.008,-7.414Zm-6.429,-49.918l-0,-5.741l-0.161,-0l0,12.973l0.172,0c0,-2.321 0,-4.642 -0.011,-7.232Zm-0.722,26.544l-0,5.71l0.065,-0l-0,-8.907l-0.077,-0c0,0.977 0,1.954 0.012,3.197Zm-12.018,-24.631l0,-7.431l-0.015,0c-0,2.436 -0,4.873 0.015,7.431Zm16.678,18.177l0,2.59l0.122,0l0,-7.298l-0.122,-0c-0.004,1.48 -0.004,2.963 0,4.708Zm-15.677,-3.483l0,-0.656l-0.137,-0l-0,6.956l0.145,-0c-0,-2.028 -0,-4.056 -0.008,-6.3Zm40.728,-38.107l0,-5.881l-0.065,0l0,6.38l0.038,0c0.012,-0.111 0.02,-0.223 0.027,-0.499Z" style="fill-rule:nonzero;"/>

<path fill="#CF7110" d="M78.03,63.918c1.826,-2.593 3.9,-4.852 6.86,-6.705c0,1.152 0.023,2.105 -0.003,3.061c-0.073,2.408 -0.096,4.824 -0.279,7.225c-0.21,2.761 -0.749,5.473 -2.594,7.78c-0.653,0.817 -1.455,1.536 -2.258,2.363c2.713,-0.489 5.348,-1.204 8.11,-0.702c0.176,0.496 0.332,0.866 0.436,1.25c0.454,1.661 -0.065,2.471 -1.826,2.98c-2.319,0.671 -4.493,0.339 -6.578,-0.712c-1.032,-2.3 -1.032,-2.3 -2.808,-1.563c-0.439,1.919 1.161,2.876 2.269,4.129c1.937,2.192 4.011,4.345 5.497,6.785c1.979,3.253 3.675,6.691 5.081,10.185c1.596,3.975 2.91,8.062 4.037,12.17c1.341,4.904 2.476,9.864 3.457,14.841c0.646,3.274 0.967,6.61 1.257,9.933c0.542,6.164 1.093,12.331 1.39,18.509c0.298,6.195 0.382,12.405 0.405,18.61c0.054,13.623 0.008,27.245 0.004,40.872l0,1.671l-11.463,0c-1.693,-8.586 -3.373,-17.119 -5.058,-25.653c-0.076,-0 -0.149,0.003 -0.225,0.003c0.259,8.492 0.519,16.984 0.783,25.643l-12.996,0c-2.593,-10.484 -6.1,-20.676 -11.715,-30.212c1.676,10.025 2.341,20.08 1.825,30.216l-5.714,-0c-0.107,-2.223 -0.203,-4.276 -0.31,-6.325c-0.298,-5.525 -0.458,-11.057 -0.951,-16.568c-0.37,-4.108 -1.184,-8.181 -1.784,-12.275c-0.244,-1.672 -1.669,-2.545 -2.884,-3.497c-4.366,-3.424 -9.523,-5.466 -14.897,-7.222c-7.724,-2.523 -15.689,-3.18 -23.795,-3.193c-3.675,-0.007 -7.262,-0.608 -10.722,-1.774c-0.157,-0.052 -0.295,-0.15 -0.581,-0.296c2.433,-0.391 4.714,-0.684 6.956,-1.135c5.757,-1.151 11.578,-1.713 17.45,-1.298c7.108,0.506 13.847,2.314 19.985,5.7c2.46,1.357 4.768,2.945 7.224,4.481c-0.355,-1.64 -0.669,-3.378 -1.112,-5.089c-0.871,-3.357 -1.841,-6.694 -2.708,-10.052c-0.328,-1.274 -1.066,-2.136 -2.231,-2.911c-4.908,-3.256 -10.436,-5.238 -16.154,-6.924c-2.839,-0.838 -5.574,-1.976 -8.339,-3.016c-0.39,-0.146 -0.676,-0.523 -0.913,-0.918c8.155,0.559 16.116,1.571 23.741,5.208c-0.153,-0.834 -0.191,-1.382 -0.356,-1.896c-0.584,-1.811 -1.207,-3.608 -1.822,-5.413c-0.313,-0.925 -0.997,-1.417 -2.043,-1.644c-7.312,-1.591 -14.661,-1.612 -22.041,-0.509c-3.201,0.478 -6.403,0.963 -9.596,1.479c-0.833,0.137 -1.635,0.412 -2.548,0.646c0.485,-1.584 10.195,-5.494 15.746,-6.586c5.863,-1.155 11.712,-1.473 17.675,0.07c-6.089,-14.701 -14.489,-28.261 -20.177,-42.875c0.168,-0.098 0.332,-0.199 0.5,-0.297c0.753,0.845 1.631,1.623 2.235,2.548c3.881,5.941 7.919,11.808 11.49,17.906c4.282,7.308 8.244,14.777 12.129,22.271c0.848,1.633 2.02,2.436 3.625,3.222c3.25,1.595 6.371,3.406 9.557,5.106c0.501,0.265 1.073,0.412 1.922,0.426c-10.712,-14.324 -21.423,-28.649 -32.13,-42.976c0.08,-0.091 0.164,-0.178 0.245,-0.269c1.077,0.792 2.211,1.525 3.216,2.391c2.659,2.293 5.405,4.523 7.846,7.001c3.724,3.78 7.361,7.648 10.776,11.661c4.202,4.936 8.24,9.993 12.167,15.113c5.069,6.611 9.649,13.501 13.583,20.74c1.322,2.429 2.69,4.837 4.026,7.263c0.176,0.321 0.287,0.674 0.619,0.998c-0.118,-1.291 -0.271,-2.583 -0.347,-3.874c-0.394,-6.775 -0.753,-13.549 -1.146,-20.324c-0.375,-6.447 -0.776,-12.89 -1.162,-19.336c-0.301,-5.061 -0.55,-10.125 -0.913,-15.183c-0.381,-5.333 -0.897,-10.659 -1.306,-15.989c-0.233,-3.019 -0.37,-6.045 -0.577,-9.507c-2.139,3.835 -5.6,3.078 -8.915,2.91c-0.661,-1.27 -1.513,-2.38 -0.107,-3.79c3.002,-0.778 6.02,-0.241 9.072,1.075l-0,-2.956c-2.773,-0.091 -5.272,-1.005 -7.3,-2.796c-1.043,-0.918 -1.925,-1.993 -2.819,-3.04c-1.161,-1.354 -2.265,-2.747 -3.258,-4.429c0.515,0.077 1.058,0.08 1.535,0.244c1.975,0.677 3.919,1.428 5.898,2.094c0.764,0.259 1.585,0.367 2.644,0.601c-0.688,-1.341 -1.062,-2.503 -1.819,-3.396c-0.546,-0.643 -1.684,-0.835 -2.406,-1.393c-0.871,-0.677 -1.83,-1.421 -2.3,-2.328c-1.276,-2.468 -2.322,-5.033 -3.434,-7.57c-0.103,-0.231 -0.015,-0.531 -0.015,-1.03c3.376,1.763 6.28,3.626 8.404,6.31c0.912,1.156 1.218,2.503 0.985,4.011c-0.145,0.932 0.153,1.954 0.416,2.897c0.256,0.918 0.722,1.787 1.295,2.652c-0.156,-6.534 -0.313,-13.071 -0.477,-19.765c-1.413,-0.342 -2.132,-1.267 -2.246,-2.646c-0.107,-1.274 0.779,-2.338 2.089,-2.398c1.188,-0.052 2.09,0.8 2.021,2.074c-0.053,0.998 -0.298,1.986 -0.795,2.942l0,2.736c1.104,-0.827 2.017,-1.508 3.221,-2.408c-0.145,2.506 -0.096,4.782 -0.501,6.987c-0.164,0.891 -1.321,1.627 -2.074,2.489l0,8.276c0.118,0.02 0.237,0.045 0.351,0.066c1.135,-2.025 2.273,-4.052 3.473,-6.157Zm-7.774,132.404c-0.794,-2.388 -1.432,-4.834 -2.414,-7.155c-2.189,-5.169 -4.477,-10.311 -6.876,-15.403c-1.253,-2.663 -2.815,-5.207 -4.274,-7.787c-0.176,-0.314 -0.589,-0.516 -0.986,-0.848c-0.061,0.304 -0.114,0.398 -0.092,0.475c1.185,3.829 2.239,7.675 2.396,11.689c0.03,0.799 0.301,1.689 0.771,2.352c0.936,1.323 2.017,2.576 3.167,3.752c2.502,2.566 3.877,5.686 5.375,8.757c0.79,1.627 1.6,3.243 2.341,5.047c0.562,1.623 1.123,3.246 1.685,4.869c0.126,-0.028 0.252,-0.056 0.374,-0.083c-0.076,-1.899 -0.688,-3.693 -1.467,-5.665Zm20.681,-86.995c-0.347,-0.88 -0.737,-1.749 -1.031,-2.643c-0.642,-1.94 -1.093,-3.947 -1.887,-5.832c-1.322,-3.124 -2.834,-6.181 -4.317,-9.249c-0.267,-0.552 -0.752,-1.016 -1.146,-1.515c-0.557,-0.705 -1.161,-1.379 -1.684,-2.108c-1.096,-1.532 -2.151,-3.089 -3.224,-4.635c0.053,4.108 0.443,8.045 0.779,11.982c0.607,7.103 1.245,14.202 1.75,21.308c0.473,6.667 0.798,13.34 1.168,20.013c0.44,7.972 0.845,15.944 1.295,23.916c0.138,2.401 0.073,4.858 0.627,7.183c1.196,4.994 2.781,9.909 4.118,14.875c1.383,5.145 2.743,10.297 3.957,15.476c0.99,4.227 1.746,8.496 2.628,12.841c0.104,-1.173 0.287,-2.269 0.275,-3.365c-0.038,-3.968 -0.145,-7.936 -0.221,-11.905c-0.099,-4.907 -0.149,-9.818 -0.306,-14.725c-0.374,-11.909 -0.764,-23.815 -1.234,-35.72c-0.107,-2.75 -0.473,-5.497 -0.859,-8.23c-0.504,-3.553 -1.15,-7.092 -1.727,-10.638c-0.202,-1.243 -0.324,-2.499 -0.588,-3.728c-0.447,-2.077 -0.978,-4.139 -1.474,-6.209c-0.02,-0.074 -0.058,-0.143 -0.119,-0.283c-0.092,0.14 -0.149,0.241 -0.218,0.335c-0.011,0.014 -0.068,0.004 -0.187,0.004c-0.451,-2.046 -0.909,-4.101 -1.363,-6.154c0.164,-0.035 0.324,-0.073 0.488,-0.108c0.096,0.136 0.195,0.272 0.291,0.408c2.261,3.295 3.369,7.005 4.32,10.723c1.058,4.129 2.044,8.296 2.609,12.498c0.902,6.709 1.662,13.445 2.055,20.188c0.516,8.869 0.653,17.755 0.886,26.634c0.153,5.707 0.188,11.421 0.272,17.127c0.336,-0.565 0.336,-1.131 0.336,-1.696c0.004,-10.139 0.042,-20.275 -0,-30.414c-0.019,-4.506 -0.099,-9.019 -0.332,-13.518c-0.245,-4.757 -0.696,-9.508 -1.062,-14.262c-0.218,-2.834 -0.287,-5.685 -0.707,-8.495c-0.611,-4.049 -1.478,-8.066 -2.242,-12.094c-0.314,-1.651 -0.596,-3.305 -0.974,-4.942c-0.214,-0.928 -0.593,-1.825 -0.925,-2.838c-0.004,-0.003 -0.118,0 -0.027,-0.205Zm-24.092,52.629c-0.332,-0.781 -0.588,-1.598 -1.016,-2.334c-1.429,-2.461 -2.785,-4.971 -4.424,-7.309c-2.196,-3.138 -5.607,-5.155 -8.847,-7.277c-1.356,-0.89 -2.937,-1.494 -4.801,-2.416c1.604,4.269 2.834,8.265 4.641,12.028c0.902,1.874 2.834,3.344 4.351,4.963c3.782,4.038 7.086,8.37 9.359,13.277c1.73,3.742 3.327,7.539 4.87,11.35c1.28,3.156 2.468,6.346 3.553,9.56c0.867,2.569 1.516,5.201 2.261,7.805c0.161,-0.287 0.199,-0.555 0.153,-0.814c-0.562,-3.165 -0.974,-6.366 -1.746,-9.49c-1.608,-6.499 -3.35,-12.973 -5.149,-19.43c-0.909,-3.27 -2.055,-6.485 -3.205,-9.913Zm8.656,5.808c-0.371,-0.708 -0.741,-1.417 -1.112,-2.125c-0.145,0.035 -0.29,0.073 -0.435,0.108c2.032,6.712 4.061,13.427 6.093,20.139c0.153,-0.035 0.301,-0.07 0.454,-0.105c-0.592,-6.171 -2.574,-12.038 -5,-18.017Zm19.054,20.01l-0,-5.193l-0.145,-0l-0,14.432l0.149,-0c-0,-2.988 -0,-5.979 -0.004,-9.239Zm-0.818,-22.687c0.023,0.286 0.046,0.576 0.054,0.677l-0,-13.818c-0.019,0 -0.038,0 -0.054,0.004l0,13.137Zm0.554,16.22l0,-14.038l-0.179,-0l-0,14.038l0.179,-0Z" style="fill-rule:nonzero;"/>

<path fill="#CF7110" d="M43.077,194.769c4.451,6.893 8.538,13.821 10.016,21.87l-4.488,-0c-5.654,-19.186 -18.63,-33.992 -33.814,-47.513c12.388,5.752 21.189,14.837 28.286,25.643Z" style="fill-rule:nonzero;"/></g></svg>