<?xml version="1.0" encoding="UTF-8" standalone="no"?><!DOCTYPE svg PUBLIC "-//W3C//DTD SVG 1.1//EN" "http://www.w3.org/Graphics/SVG/1.1/DTD/svg11.dtd"><svg width="100%" height="100%" viewBox="0 0 3334 3334" version="1.1" xmlns="http://www.w3.org/2000/svg" xmlns:xlink="http://www.w3.org/1999/xlink" xml:space="preserve" xmlns:serif="http://www.serif.com/" style="fill-rule:evenodd;clip-rule:evenodd;stroke-linejoin:round;stroke-miterlimit:2;"><g><g><g><path d="M1323.61,1031.35c-0.299,0.203 -0.117,0.066 -0.045,-0.043c0.015,0.014 0.03,0.029 0.045,0.043Z" style="fill:#cc7229;"/><path d="M2315.53,1000.39c9.99,-27.69 14.816,-55.633 3.006,-86.131c3.166,-29.371 4.481,-58.304 -7.453,-86.75c-5.942,-14.126 -11.008,-29.615 -11.787,-44.715c-3.41,-68.631 -5.066,-137.31 -7.648,-205.94c-0.389,-9.888 -2.484,-19.776 -3.799,-29.615c1.656,-0.731 3.312,-1.413 4.968,-2.144c12.275,27.57 28.008,54.213 35.996,83c11.593,41.841 19.63,84.997 25.085,128.153c2.241,17.486 -1.802,38.967 -10.716,54.066c-17.194,29.177 -15.44,60.204 -16.804,91.086c-0.828,18.899 2.63,37.944 4.189,56.94c1.656,0.049 3.312,0.049 4.968,0.098c21.821,-46.468 42.912,-93.326 65.757,-139.307c18.363,-36.921 38.772,-72.771 58.45,-109.01c11.739,-21.676 27.472,-42.133 19.24,-63.906c9.45,-13.785 16.561,-24.16 24.062,-35.071c2.387,0.488 5.31,1.023 9.352,1.803l0,-39.649l16.367,-0c1.753,-7.16 3.458,-14.272 5.455,-22.698c2.046,0.243 5.991,0.73 10.472,1.315c2.582,-8.768 5.31,-18.071 7.94,-27.131c6.527,-3.946 12.713,-7.696 19.532,-11.836c-5.65,-7.404 -9.644,-12.665 -14.174,-18.558c7.842,1.023 14.564,1.948 24.598,3.263c-8.33,-11.3 -14.905,-20.214 -21.286,-28.835c7.404,0.779 14.418,1.558 23.283,2.532l-0,-33.365l3.994,-3.994c1.948,4.286 3.897,8.621 6.137,13.687c6.332,-6.722 11.544,-12.275 16.853,-17.925c-3.117,-5.747 -6.916,-12.762 -12.859,-23.721c12.713,6.04 20.312,9.644 27.959,13.297c-2.192,-16.122 -4.14,-30.248 -5.991,-43.545c10.424,2.825 19.142,5.212 29.225,7.501c1.364,-0.097 1.023,-0.244 1.023,-0.244c8.232,1.657 16.464,3.313 26.254,5.31c-10.229,11.008 -21.042,21.188 -13.979,37.993c1.217,2.873 -4.579,8.085 -5.31,12.518c-1.217,7.696 -0.974,15.635 -0.146,23.721c1.169,0.292 0.78,-0 0.78,-0c6.721,5.017 13.443,9.985 20.019,14.905c-8.427,2.971 -18.169,6.429 -28.787,10.131c1.413,3.702 3.312,8.719 6.04,16.025c-11.008,0.78 -21.14,1.51 -32.781,2.338c4.335,5.407 8.134,10.132 12.762,15.831c-6.089,2.873 -11.934,5.65 -18.51,8.816c-4.724,-1.802 -9.888,-3.799 -19.24,-7.453c3.069,8.865 5.017,14.613 6.771,19.63c-25.865,31.028 -51.68,61.909 -77.447,92.839c0.243,1.12 0.536,2.192 0.779,3.312c7.599,-3.117 16.61,-4.578 22.552,-9.644c66.488,-56.795 144.763,-88.553 228.493,-108.913c1.754,-0.438 3.653,-0.049 1.12,-0.049c-78.031,61.032 -158.547,124.013 -239.354,187.237c-18.217,-9.304 -34.681,-4.092 -41.208,13.687c-16.512,-0.098 -43.594,37.311 -42.961,57.135c113.297,-41.451 227.178,-83.194 341.059,-124.889c1.169,2.241 2.386,4.481 3.555,6.771c-31.417,22.454 -62.103,45.932 -94.349,67.12c-62.59,41.11 -122.892,85.922 -192.204,116.317c-30.297,13.297 -59.425,17.243 -93.18,3.848c-13.638,28.105 -26.985,55.528 -40.331,82.951c1.608,1.51 3.264,3.02 4.871,4.53c12.81,-9.109 25.426,-18.559 38.529,-27.277c23.282,-15.49 45.64,-33.074 70.579,-45.299c76.862,-37.652 154.747,-73.21 232.292,-109.498c1.461,-0.682 3.214,-0.828 6.624,1.656c-35.655,25.232 -70.871,51.047 -107.013,75.45c-42.961,29.031 -86.02,58.061 -130.442,84.753c-22.065,13.249 -47.15,19.289 -74.281,15.003c-19.045,-3.02 -46.419,16.512 -55.674,38.821l86.068,-0c-0.048,1.217 -0.146,2.484 -0.195,3.701c3.946,-2.825 7.891,-5.699 11.837,-8.524c0.974,0.78 1.899,1.51 2.874,2.29c-5.31,7.501 -10.619,15.051 -15.928,22.552c0.487,0.584 0.925,1.12 1.412,1.705c10.765,-7.55 21.578,-15.1 34.096,-23.916c7.696,10.569 14.613,20.116 21.432,29.468c-5.601,1.997 -12.81,4.579 -25.231,9.012c11.154,3.068 16.707,4.578 22.26,6.088c-0.097,1.169 -0.195,2.387 -0.292,3.556l-60.253,-0c-1.169,2.874 -3.848,9.547 -6.527,16.22c-0.828,-0.098 -1.656,-0.195 -2.533,-0.292c1.218,-13.688 2.436,-27.423 3.994,-45.299c-4.383,7.501 -6.624,11.251 -11.203,19.093l0,-28.494l-69.069,-0c-3.316,8.438 -6.641,16.9 -9.976,25.388l-34.042,-0.825Z" style="fill:#cc7229;"/><path d="M2462.37,567.944c-14.467,74.963 -33.658,146.711 -72.089,211.737c-2.436,-0.049 -4.823,-0.098 -7.258,-0.146c-2.143,-28.495 -5.845,-57.038 -6.04,-85.533c-0.438,-68.533 30.589,-128.104 57.963,-188.162c14.223,-31.173 32.733,-60.447 49.489,-90.452c2.581,-4.627 6.234,-8.719 11.982,-11.495c-6.381,25.913 -13.492,51.631 -18.948,77.739c-5.796,28.056 -10.034,56.502 -15.099,86.312Z" style="fill:#cc7229;fill-rule:nonzero;"/><path d="M2674.99,324.644c1.023,-6.527 2.289,-13.006 3.02,-19.581c0.633,-5.65 0.731,-11.349 5.553,-17.097c3.069,5.114 6.186,10.278 9.644,16.025c1.364,-8.767 2.582,-16.415 3.507,-22.406c-1.753,-9.936 -3.215,-18.46 -4.822,-27.764c9.498,5.456 16.707,9.596 23.672,13.59c-3.263,-13.249 -5.893,-24.062 -9.4,-38.188c8.378,6.576 13.395,10.521 22.747,17.876c-4.384,-13.687 -7.112,-22.211 -10.278,-32.196l11.739,-0c-2.387,-4.871 -4.481,-9.109 -8.281,-16.805c6.138,4.092 9.596,6.381 14.564,9.693c2.436,-14.904 4.774,-28.933 6.917,-42.181c4.433,0.243 8.524,0.535 13.297,0.779l0,-29.42c5.212,9.303 7.696,13.736 10.181,18.217c1.12,-0.292 2.24,-0.584 3.361,-0.828l-0,-29.615c1.558,2.825 2.727,4.968 5.845,10.57l-0,-40.623c6.039,5.455 10.813,9.79 18.85,17.097c-1.51,-16.123 -2.679,-29.08 -4.189,-45.3c6.186,8.281 10.813,14.516 18.509,24.842c-1.169,-20.75 -2.046,-36.434 -3.215,-57.282c5.407,9.012 8.281,13.736 14.516,24.16c3.02,-14.369 5.065,-24.062 7.647,-36.239c1.072,8.378 1.802,14.466 2.776,22.065c3.848,-1.851 7.258,-3.556 12.421,-6.04c-0.633,3.897 -1.12,6.868 -1.607,9.936c2.922,1.364 5.991,2.874 11.885,5.651c-13.054,4.676 -23.575,8.426 -34.145,12.225c0.195,1.462 0.341,2.923 0.536,4.336c7.549,-0.682 15.099,-1.413 27.812,-2.582c-9.595,9.011 -16.317,15.295 -23.964,22.455c0.048,30.102 -2.241,33.122 -32.246,42.181c5.894,-0.487 11.788,-0.974 19.727,-1.607c-4.822,10.472 -9.4,20.409 -14.71,32.002c-2.776,0.828 -7.452,2.24 -11.885,3.555c-0.438,9.158 -0.828,17.633 -1.266,27.521c-9.888,4.238 -20.019,8.621 -30.199,13.005c0.097,0.536 0.194,1.12 0.292,1.656c7.355,-0.974 14.71,-1.899 22.114,-2.874c0.389,0.828 0.73,1.657 1.12,2.436c-8.622,5.699 -17.194,11.398 -29.42,19.435c9.254,-1.023 14.515,-1.656 19.824,-2.241c0.78,1.169 1.608,2.338 2.387,3.507c-7.842,6.771 -15.733,13.492 -23.575,20.263c3.458,1.218 6.965,2.435 16.902,5.942c-16.512,10.911 -29.128,19.289 -45.543,30.102c11.155,-1.558 18.363,-2.532 25.572,-3.555c0.828,1.899 1.705,3.799 2.533,5.699c-14.077,6.916 -28.153,13.833 -46.078,22.649c11.592,0.974 18.801,1.608 27.033,2.338c-9.498,17.34 -26.01,18.753 -44.081,20.75c-3.946,-3.117 -5.748,-5.65 -7.599,-8.134Z" style="fill:#cc7229;fill-rule:nonzero;"/><path d="M1673.63,726.734c19.971,-10.618 39.941,-21.237 60.448,-32.099c-8.281,10.667 -16.561,22.358 -25.913,33.122c-49.05,56.405 -98.246,112.663 -147.734,168.678c-13.931,15.782 -28.933,30.541 -44.471,44.715c-1.072,-11.69 -0.39,-22.406 -1.218,-32.976c-2.533,-31.563 11.788,-55.722 33.999,-75.547c27.179,-24.159 55.528,-47.004 84.753,-70.335c14.32,-11.788 27.228,-23.673 40.136,-35.558Z" style="fill:#cc7229;fill-rule:nonzero;"/><path d="M1457.56,648.459c16.171,-67.997 32.197,-134.387 48.222,-200.777c1.364,0.292 2.776,0.584 4.14,0.877c-0,20.165 0.244,40.282 -0.049,60.447c-0.389,28.836 -3.458,57.818 -1.364,86.41c4.189,57.866 -19.24,108.425 -38.09,160.397c-4.822,13.347 -9.693,26.693 -14.271,39.308c-8.33,-23.575 -7.843,-105.746 1.412,-146.662Z" style="fill:#cc7229;fill-rule:nonzero;"/><path d="M1289.81,993.366c9.742,10.57 18.169,21.091 26.157,33.219c2.825,6.284 6.137,11.008 9.547,16.853c1.461,1.803 2.776,2.485 4.53,3.167c0.389,0.048 1.169,0.146 1.704,-0c0.536,-0.147 1.51,-0.341 1.316,1.022c1.412,5.261 2.386,9.645 4.822,13.006c14.077,19.532 28.689,38.626 42.62,58.255c2.874,4.092 3.556,9.693 5.26,14.613c-3.848,-1.072 -8.718,-1.023 -11.397,-3.458c-31.759,-28.154 -61.909,-58.402 -95.372,-84.315c-15.538,-12.031 -37.506,-15.782 -58.451,-24.014c3.702,-1.363 6.04,-2.24 9.206,-3.409c-4.189,-6.186 -8.231,-12.177 -15.294,-22.65c10.764,3.556 16.999,5.602 28.007,9.255c-0.682,-7.014 0.877,-14.467 -2.094,-18.607c-19.24,-26.595 -39.454,-52.459 -59.425,-78.518c-3.653,-4.774 -7.501,-9.401 -10.034,-15.295c46.907,24.744 76.814,69.166 118.898,100.876Z" style="fill:#cc7229;fill-rule:nonzero;"/><path d="M1505.93,1156.54c15.879,-27.277 30.735,-55.187 47.783,-81.733c35.947,-56.161 75.401,-109.351 136.531,-141.353c2.581,-1.364 5.163,-2.679 10.326,-0.925c-51.583,64.636 -103.165,129.273 -154.845,193.812c-6.381,7.988 -13.2,15.684 -20.458,25.767c-1.364,4.091 -2.143,5.942 -3.799,6.965c-3.945,-1.413 -6.965,-1.948 -10.96,-2.63c-1.656,-0.146 -2.289,-0.195 -3.36,-0.146c-0.439,0.097 -1.218,0.243 -1.218,0.243Z" style="fill:#cc7229;fill-rule:nonzero;"/><path d="M2831.24,361.76c4.14,1.023 8.329,1.997 14.661,3.555c-17.389,5.017 -32.684,9.45 -47.929,13.834c0.195,1.071 0.389,2.143 0.584,3.215c4.043,0.681 8.037,1.315 15.538,2.581c-20.068,6.478 -36.921,11.934 -56.063,18.12c5.942,3.604 10.131,6.137 18.46,11.105c-13.59,-1.412 -22.844,-2.338 -35.216,-3.604c4.237,6.722 6.916,10.911 10.423,16.512c-13.054,0.926 -25.474,1.802 -37.846,2.728c-0.682,1.705 -1.413,3.409 -2.095,5.114c5.066,3.459 10.083,6.868 18.997,12.908l-40.477,0c0.73,5.066 1.364,9.303 2.63,17.779c-11.349,-1.218 -21.334,-2.338 -32.83,-3.264c-1.558,0.146 -1.169,0.439 -1.023,0.585c-1.071,-3.848 -2.24,-7.891 -3.507,-12.129c11.642,-16.317 23.381,-32.732 36.386,-50.949c1.071,8.768 1.851,15.197 3.166,26.351c10.229,-17.924 18.363,-32.245 27.861,-48.903c2.923,6.186 4.822,10.131 7.55,15.976c6.819,-9.108 12.616,-16.756 20.068,-26.643c2.289,5.065 3.556,7.939 5.699,12.664c1.218,-3.848 2.046,-6.381 2.874,-8.914c1.461,1.656 2.874,3.312 4.432,5.066c3.069,-6.722 5.894,-12.81 8.67,-18.899l4.579,-0c0.877,6.868 1.705,13.784 2.728,21.87c5.114,-12.421 10.034,-24.5 15.002,-36.531c1.559,0.487 3.117,0.974 4.676,1.461c0.292,5.504 0.633,11.008 1.072,19.581c4.627,-11.739 8.231,-20.945 11.836,-30.2c1.851,0.731 3.75,1.413 5.601,2.144l0,22.893c3.702,1.607 8.427,3.653 13.493,4.822c0.292,-0.974 -0,-0.828 -0,-0.828Z" style="fill:#cc7229;fill-rule:nonzero;"/><path d="M1522.34,1159.85c0.73,-1.851 1.461,-3.702 2.776,-6.381c5.309,-3.166 10.765,-4.724 14.71,-7.988c65.659,-54.407 130.783,-109.497 196.881,-163.369c18.119,-14.759 39.064,-25.962 60.496,-36.483c-100.34,87.384 -196.978,178.859 -307.206,256.062c-3.263,-1.607 -5.358,-3.653 -8.134,-6.429c2.143,-4.53 4.968,-8.232 9.595,-12.129c1.705,-0.146 2.825,0 4.189,-0.097c9.839,-7.794 18.266,-15.49 26.693,-23.186Z" style="fill:#cc7229;fill-rule:nonzero;"/><path d="M1535.35,958.929c-2.192,0.341 -3.166,0.195 -5.602,-0.098c35.85,-44.471 73.307,-88.698 110.472,-133.169c9.839,-11.788 18.801,-24.403 31.271,-40.721c-0,8.427 1.218,12.275 -0.195,14.515c-23.38,37.798 -47.296,75.353 -70.628,113.2c-4.676,7.549 -7.501,16.22 -7.842,26.497c10.521,-7.16 20.604,-15.197 31.758,-21.14c4.433,-2.338 11.301,-0.097 17.048,0.049c-0.633,5.748 0.926,13.931 -2.24,16.756c-11.057,9.742 -23.527,17.973 -35.996,26.01c-5.407,3.507 -11.982,5.066 -20.068,8.378c-5.017,-8.865 -10.911,-19.386 -18.022,-32.001c-9.791,7.257 -19.289,14.271 -29.956,21.724Z" style="fill:#cc7229;fill-rule:nonzero;"/><path d="M1593.65,551.919c-6.575,-1.656 -11.349,-3.313 -17.243,-5.407c0.975,-11.495 2.972,-22.552 5.164,-34.242c5.65,-0.682 11.056,-1.364 17.632,-2.192c-5.942,-0.731 -10.765,-1.315 -16.123,-1.949c1.998,-11.982 3.8,-23.039 5.699,-34.631c3.313,0.779 7.648,1.753 10.765,2.484c-0.584,-9.645 -1.12,-18.656 -1.705,-28.3c7.599,-1.948 13.493,-3.458 19.094,-4.871c-3.945,-3.02 -7.988,-6.089 -12.031,-9.157c3.507,-4.043 7.014,-8.086 12.81,-11.739c4.92,1.218 7.55,1.997 10.181,2.776c4.335,3.215 8.621,6.43 13.93,10.375c-1.948,5.017 -4.091,10.57 -6.575,17.048c-6.771,-1.315 -12.616,-2.484 -20.166,-3.945c4.481,4.968 7.745,8.573 13.639,15.1c12.761,-8.67 25.669,-17.487 40.866,-27.862c-2.387,32.051 -26.838,50.268 -38.626,75.499c-4.189,0.438 -8.329,0.877 -13.833,1.461c2.63,5.553 4.871,10.326 7.696,16.22c-3.02,0.487 -6.04,1.023 -9.498,1.608l-0,13.687c-7.161,2.825 -13.541,5.455 -21.676,8.037Z" style="fill:#cc7229;fill-rule:nonzero;"/><path d="M1684.69,279.491c-2.387,-4.335 -4.774,-8.67 -7.306,-13.298c3.848,-13.297 7.793,-26.984 12.031,-40.574c0.146,-0.39 3.458,0.195 6.234,0.39c-0.633,-11.691 -1.802,-24.16 14.369,-26.157c-0.633,-12.323 -1.266,-24.695 -1.997,-38.188c4.823,-1.412 9.255,-2.679 14.223,-4.091c-1.071,-7.16 -1.948,-13.103 -2.825,-18.997c0.292,10.132 30.784,7.891 9.547,26.4c4.92,0.829 8.232,1.413 16.123,2.728c-6.576,6.137 -11.057,10.326 -16.172,15.149c1.267,1.51 3.41,4.091 6.089,7.257c-4.286,8.232 -8.573,16.464 -14.223,27.277c0.244,0.731 1.607,5.163 3.458,10.96c-3.604,1.899 -6.965,3.701 -10.277,5.504c1.705,0.682 3.312,1.412 5.553,2.338c-1.949,2.63 -3.751,5.163 -7.794,10.716c-3.068,-0.439 -10.034,-1.462 -17.048,-2.485c-0.195,0.78 -0.341,1.559 -0.536,2.338c6.43,1.657 12.859,3.361 21.676,5.651c-5.017,4.335 -9.304,8.037 -14.077,12.177c2.63,0.877 5.407,1.802 10.424,3.507c-5.748,4.189 -10.424,7.55 -16.805,12.08c-4.676,0.535 -7.647,-0.098 -10.667,-0.682Z" style="fill:#cc7229;fill-rule:nonzero;"/><path d="M1647.96,391.277c-4.628,-3.068 -9.304,-6.088 -14.223,-9.352c1.704,-6.965 3.263,-13.395 5.504,-22.406c-1.315,-2.387 -3.897,-7.063 -8.183,-14.905c5.796,3.751 8.524,5.504 14.125,9.158l0,-37.945c3.02,2.387 6.332,4.92 6.868,5.358c9.644,-1.899 16.61,-3.263 22.844,-4.481c-5.065,-1.899 -11.008,-4.043 -19.142,-7.063c4.773,-5.455 7.793,-8.962 10.813,-12.42c-1.705,-4.238 -3.458,-8.524 -5.212,-12.762c1.316,-0.536 2.582,-1.023 3.897,-1.559c2.338,5.699 4.627,11.447 7.647,18.851c6.284,0.876 14.175,1.997 22.065,3.166c-5.017,17.778 -8.816,36.434 -34.437,32.147c6.917,0.634 13.834,1.267 24.939,2.29c-7.452,6.624 -12.274,10.959 -17.34,15.489c2.776,1.169 5.455,2.338 14.32,6.137c-13.102,4.53 -21.383,7.355 -30.443,10.473c4.433,1.705 9.45,3.604 20.896,8.037c-10.521,5.358 -16.561,8.475 -23.916,11.592c-1.315,-0.048 -1.022,0.195 -1.022,0.195Z" style="fill:#cc7229;fill-rule:nonzero;"/><path d="M2673.87,323.913c2.971,3.264 4.773,5.748 7.306,8.962c11.203,2.826 21.724,4.969 38.09,8.232c-15.343,6.332 -26.156,10.814 -38.528,15.977c4.14,3.166 7.355,5.601 16.268,12.372c-17.778,5.163 -30.735,8.913 -44.909,13.054c-1.169,0.389 -0.828,0.535 -0.682,0.682c-3.069,-9.742 -6.283,-19.63 -9.888,-30.687c11.934,-1.266 18.412,-1.948 25.475,-2.679c-3.799,-12.226 -6.917,-22.26 -11.398,-36.872c8.962,5.358 13.054,7.793 18.266,10.959Z" style="fill:#cc7229;fill-rule:nonzero;"/><path d="M2831.68,361.516c-21.432,-11.349 -2.24,-24.354 -0.049,-37.311c1.803,4.384 3.654,8.817 5.943,14.418c5.017,-7.988 9.401,-14.905 16.853,-26.741c-0.925,10.375 -1.364,15.051 -2.289,25.231c7.842,-10.424 12.664,-16.804 19.678,-26.156c-1.948,9.157 -3.166,14.904 -4.481,21.09c7.891,-3.312 14.905,-6.234 21.919,-9.157c0.633,1.461 1.218,2.874 1.851,4.335c-4.579,2.241 -9.206,4.53 -15.684,7.696c4.432,1.949 7.208,3.166 10.764,4.725c-10.034,1.851 -19.142,3.556 -32.683,6.089c7.647,4.627 11.057,6.721 12.518,7.598c-9.645,1.851 -20.896,4.043 -33.463,7.306c-1.315,1.121 -1.023,0.975 -0.877,0.877Z" style="fill:#cc7229;fill-rule:nonzero;"/><path d="M1367.06,759.174c1.267,3.361 2.387,5.407 4.579,9.352c-15.1,0.293 -30.297,3.215 -36.288,-12.079c-2.582,-6.576 3.994,-16.707 6.429,-25.329c19.387,2.874 23.965,13.395 25.28,28.056Z" style="fill:#cc7229;fill-rule:nonzero;"/><path d="M1314.84,1129.02c-2.727,-6.138 -4.383,-11.203 -6.429,-17.146c5.942,-4.286 10.765,-7.793 17.097,-12.372c7.403,6.868 14.077,13.054 21.042,19.484c-7.55,14.223 -16.707,19.629 -31.71,10.034Z" style="fill:#cc7229;fill-rule:nonzero;"/><path d="M1629.26,424.497c-4.042,-0.585 -6.673,-1.364 -10.277,-2.582c-0.731,-7.842 -0.487,-15.246 1.51,-22.552c11.446,3.604 21.091,7.063 30.735,10.57c-6.819,4.773 -13.687,9.595 -21.968,14.564Z" style="fill:#cc7229;fill-rule:nonzero;"/><path d="M1652.44,409.592c-10.862,-3.166 -20.507,-6.625 -31.028,-10.96c-0.438,-4.822 -0.048,-8.865 0.39,-13.151c9.693,2.289 16.463,3.897 24.695,5.65c1.413,0.146 1.169,-0.097 1.023,-0.195c3.41,3.994 6.965,8.086 10.862,12.616c-1.656,1.997 -3.215,3.848 -5.942,6.04Z" style="fill:#cc7229;fill-rule:nonzero;"/><path d="M1683.67,278.809c4.043,1.315 7.063,1.899 11.008,2.387c3.799,0.34 6.625,0.828 9.45,1.315c0.633,1.51 1.266,3.02 1.948,4.53c-9.206,5.309 -18.412,10.569 -30.784,17.681l0,-30.784c2.533,1.461 4.92,2.776 8.378,4.871Z" style="fill:#cc7229;fill-rule:nonzero;"/><path d="M1392.97,1138.42c0.78,-1.169 1.413,-1.12 3.312,-0.097c2.339,1.461 3.41,2.046 4.628,2.679c0.097,0.097 0.341,0.244 0.341,0.244c3.215,5.65 6.429,11.3 10.472,17.827c0.828,0.925 0.633,1.023 -0.341,1.315c-1.656,1.461 -2.338,2.63 -2.922,3.653c0.097,-0.097 0.292,-0.292 0.292,-0.292c-5.309,-8.086 -10.619,-16.123 -15.782,-25.329Z" style="fill:#cc7229;fill-rule:nonzero;"/><path d="M1492.24,1178.61c2.874,-7.063 5.699,-14.077 10.229,-20.847c2.825,0.828 3.994,1.461 4.773,3.215c-1.802,3.02 -3.215,4.87 -4.53,6.819c0.146,0.049 0.244,0.341 -0.925,0.584c-4.141,3.751 -7.161,7.258 -10.034,10.668c0.194,-0.195 0.487,-0.439 0.487,-0.439Z" style="fill:#cc7229;fill-rule:nonzero;"/><path d="M1412.65,1159.9c0.925,0.925 1.753,1.9 3.166,3.604c-1.949,1.413 -4.433,1.998 -7.014,1.413c-0.049,-1.218 -0.244,-1.023 0.438,-1.51c1.51,-1.461 2.338,-2.387 3.117,-3.361c0,0 0.195,-0.097 0.293,-0.146Z" style="fill:#cc7229;fill-rule:nonzero;"/><path d="M1494.34,1183.09c0,0 -1.071,-0.146 -1.656,-0.194c-0.584,-0.731 -0.682,-1.462 -0.584,-3.215c0.146,-1.072 -0.147,-0.78 0.389,-0.195c1.656,1.315 2.095,2.289 1.851,3.604Z" style="fill:#cc7229;fill-rule:nonzero;"/><path d="M1401.64,1137.54c0,-0 1.657,0.097 2.485,0.243c0.048,0.926 -0.731,1.705 -2.192,2.874c-0.634,0.487 -0.877,0.341 -0.78,-0.584c0.098,-0.877 0.487,-2.533 0.487,-2.533Z" style="fill:#cc7229;fill-rule:nonzero;"/><path d="M1328.63,1042.32c0.779,0.974 1.705,1.802 2.63,3.507c-0.048,0.926 -0.876,0.828 -1.315,-0.292c-0.73,-1.851 -1.023,-2.533 -1.315,-3.215Z" style="fill:#cc7229;fill-rule:nonzero;"/><path d="M1510.46,1156.39c0.146,1.218 -0.682,2.387 -2.533,3.799c-1.12,-0.487 -1.169,-1.217 -0.828,-3.02c1.071,-0.974 1.705,-0.925 3.361,-0.779Z" style="fill:#cc7229;fill-rule:nonzero;"/><path d="M1433.81,1260.83c1.379,-12.017 2.789,-24.032 4.218,-36.044c2.776,-23.478 -14.369,-38.87 -21.432,-60.447c-2.387,-2.631 -3.215,-3.556 -4.968,-5.407c-4.14,-6.478 -7.355,-12.129 -9.937,-18.315c1.461,-1.217 2.241,-1.948 3.118,-4.14c-21.773,-29.761 -43.595,-58.109 -65.319,-87.773c-5.149,-6.703 -10.492,-12.099 -15.883,-17.346c0.101,-0.068 0.257,-0.175 0.491,-0.335c-1.607,-1.754 -4.14,-2.825 -7.306,-5.017c-9.011,-11.642 -17.438,-22.163 -25.864,-32.684c-3.118,-5.796 -5.31,-12.421 -9.499,-17.34c-73.745,-86.458 -155.381,-164.392 -248.658,-229.711c-3.02,-2.143 -5.699,-4.822 -7.403,-8.816c123.671,35.07 210.616,123.964 306.962,210.13c-35.509,-125.425 -69.897,-246.759 -104.237,-368.044c0.487,-0.34 0.926,-0.73 1.413,-1.071c7.744,13.005 15.879,25.767 23.136,39.016c55.967,102.288 107.695,206.573 144.714,317.532c3.605,10.862 10.375,20.701 17.146,32.927c5.211,11.593 8.329,21.627 12.907,30.881c18.217,36.921 19.825,66.439 -7.939,97.174c-0.974,27.813 9.157,52.265 25.523,78.275c7.745,-59.717 14.954,-115.537 21.627,-167.363c-7.258,-10.813 -12.031,-17.974 -16.805,-25.085c4.774,0.779 9.547,1.607 15.295,2.581c-3.507,-47.637 -18.509,-90.744 -42.864,-132.292c3.215,-1.803 5.553,-3.118 8.329,-4.676c-9.887,-25.329 -21.821,-50.17 -29.079,-76.278c-4.871,-17.487 -6.965,-37.506 -3.604,-55.139c8.719,-45.786 21.139,-90.841 35.557,-136.482c1.559,59.571 6.381,119.288 3.702,178.664c-2.484,55.187 -2.922,108.426 25.426,158.011c4.043,7.112 5.796,15.49 8.232,22.114c12.664,-75.888 25.475,-152.799 38.626,-231.464c1.266,-0.536 5.504,-2.192 4.725,-1.9c2.825,-14.71 4.968,-25.815 7.111,-36.969l4.53,0.584c-1.218,-4.579 -2.484,-9.108 -3.897,-14.369c5.456,-2.63 10.375,-5.017 15.1,-7.306c-2.825,-3.994 -5.699,-8.135 -9.742,-13.882c5.748,-2.484 9.401,-4.043 13.736,-5.894c-1.364,-3.166 -2.971,-6.917 -4.578,-10.619c2.045,-0.389 4.14,-0.779 6.186,-1.217c-0.829,-5.358 -1.705,-10.716 -2.582,-16.269l12.616,-0c-0.975,-6.868 -1.9,-13.298 -3.02,-21.334c4.481,0.487 8.377,0.974 10.716,1.217c2.143,-12.226 4.286,-24.257 6.624,-37.457c1.9,1.267 3.799,2.533 8.037,4.676c7.16,2.533 11.982,4.141 16.804,5.797c5.456,0.876 10.96,1.753 16.415,2.581c0.682,1.461 1.364,2.923 2.095,4.335c-7.209,4.53 -14.467,9.06 -20.555,12.811c0.876,0.487 4.481,2.435 9.546,5.163c-5.065,9.936 -9.595,18.899 -15.83,31.222c-0.195,-0.779 0.731,3.166 1.9,8.183c-3.41,1.802 -7.453,3.946 -12.664,6.673c2.24,3.556 3.994,6.284 4.286,6.771c-10.813,21.578 -21.042,41.938 -32.586,64.977c20.506,-4.871 22.016,-6.868 44.617,-36.677c40.282,-53.19 81.879,-105.26 133.949,-147.783c4.822,-3.945 10.424,-7.014 17.535,-8.426c-36.872,78.226 -90.062,144.762 -139.891,214.172c70.968,-48.417 136.676,-105.162 217.825,-136.628l2.923,3.799c-50.268,46.176 -100.487,92.352 -152.556,139.94c-14.954,12.567 -28.105,23.722 -42.523,35.119c-33.901,23.088 -62.006,55.382 -111.64,48.417c-8.768,59.912 -17.243,117.875 -26.303,179.979c9.547,-7.891 14.174,-11.69 18.85,-15.538c6.332,-3.702 12.665,-7.404 21.481,-11.593c3.458,-0.39 4.432,-0.244 5.406,-0.098c-7.842,9.45 -14.222,20.994 -23.915,27.911c-15.733,11.251 -22.309,25.182 -24.16,43.837c-5.455,55.431 -12.031,110.715 -18.412,167.948c4.92,-1.705 7.988,-2.728 13.054,-3.458c4.092,2.435 6.137,4.481 8.183,6.478c-8.475,7.306 -16.999,14.661 -27.715,23.867c-0.946,11.619 -1.895,23.262 -2.846,34.924l-24.46,0Z" style="fill:#cc7229;"/><path d="M1323.76,1031.41c0.341,-0.194 0.585,-0.194 0.244,0.049c-0.633,0.292 -0.341,0.098 -0.244,-0.049Z" style="fill:#cc7229;fill-rule:nonzero;"/><path d="M1328.97,1041.68c-0.487,1.023 -1.218,0.974 -2.971,1.023c0.195,-0.633 1.461,-1.364 2.971,-1.023Z" style="fill:#cc7229;fill-rule:nonzero;"/><path d="M1502.71,1167.74c0.146,-0.195 0.487,-0.341 0.487,-0.097c-0.243,0.438 -0.341,0.146 -0.487,0.097Z" style="fill:#cc7229;fill-rule:nonzero;"/></g><g><path d="M1740.18,1812.78c-0.514,2.912 -1.03,5.823 -1.548,8.735c0.222,-2.906 0.442,-5.811 0.659,-8.717c0.297,-0.006 0.594,-0.012 0.889,-0.018Z" style="fill:#9e7202;fill-opacity:0.83;"/><path d="M2349.57,1001.22c-27.428,69.808 -55.55,141.443 -85.298,217.181c150.267,-33.998 293.86,-69.702 441.886,-80.418c-144.324,42.474 -291.522,71.115 -444.614,90.404c-39.308,107.159 -78.664,214.415 -118.021,321.672l7.599,4.091c19.678,-24.5 39.405,-49 58.937,-73.598c1.023,-1.316 1.267,-3.459 1.364,-5.261c4.189,-75.498 50.511,-116.657 116.073,-141.791c102.142,-39.211 208.181,-61.763 316.509,-75.645c113.638,-14.564 227.421,-17.827 341.643,-11.446c3.654,0.195 7.258,1.023 14.564,2.143c-187.187,22.26 -355.914,93.764 -529.025,150.412l1.899,6.43c24.55,-8.768 49.099,-17.584 73.648,-26.351l2.484,5.114c-1.412,1.559 -2.484,3.799 -4.237,4.481c-50.511,19.776 -80.419,59.327 -102.922,106.331c-45.397,94.739 -102.337,182.707 -159.034,270.87c-18.168,28.251 -34.583,57.573 -51.485,86.604c-2.533,4.335 -3.264,9.742 -1.169,16.804c28.592,-37.408 57.233,-74.865 85.825,-112.273l7.452,5.406c-94.251,151.728 -179.297,309.349 -295.759,446.757c1.607,1.802 3.214,3.556 4.822,5.358c20.652,-14.515 41.353,-29.031 66.049,-46.371c2.922,2.192 10.667,5.845 14.71,11.934c2.143,3.214 -0.731,14.417 -3.848,15.635c-10.034,3.994 -21.237,5.017 -31.953,7.209c-0.487,-1.753 -0.974,-3.556 -1.51,-5.309c-14.32,8.914 -29.566,16.61 -42.571,27.131c-6.966,5.65 -13.444,15.733 -14.37,24.403c-8.475,81.928 -16.366,163.905 -23.087,246.027c-6.04,73.94 -10.716,148.026 -15.295,222.112c-4.238,68.533 -8.914,137.067 -11.008,205.697c-3.653,119.824 -5.456,239.696 -8.183,359.568c-0.195,8.183 -1.413,16.318 -2.29,25.524l-41.889,-0c-0,-38.724 -0.585,-77.058 0.146,-115.391c1.023,-57.428 6.624,-115.051 3.361,-172.235c-2.679,-47.003 -14.905,-93.52 -23.867,-140.037c-11.106,-57.525 -23.234,-114.904 -33.804,-167.12c-9.401,46.761 -19.338,97.905 -30.151,148.903c-6.235,29.469 5.894,56.599 9.011,84.85c5.309,48.076 13.639,95.908 16.366,144.13c4.092,71.65 4.433,143.495 6.43,216.948l-30.297,0c-3.897,-120.749 -7.745,-241.303 -11.641,-361.906c-1.754,-0.048 -3.507,-0.097 -5.261,-0.194c-31.758,120.554 -63.565,241.108 -95.664,362.831c-17.194,0.877 -34.388,1.802 -51.728,2.679l-0,-266.924c-32.1,89.38 -63.614,177.202 -95.177,265.219c-11.349,0.487 -20.555,0.925 -32.051,1.413c13.98,-36.045 28.446,-70.774 40.916,-106.185c25.669,-72.917 50.949,-145.981 74.621,-219.531c4.336,-13.395 0.828,-29.566 -0.194,-44.422c-2.095,-31.222 -4.92,-62.396 -9.45,-94.105c-44.861,158.352 -106.623,310.177 -172.478,461.953l-74.232,0c0,-26.741 1.803,-51.923 -0.389,-76.813c-4.53,-51.924 -9.937,-103.799 -17.194,-155.381c-9.986,-70.823 -19.289,-141.889 -33.707,-211.883c-25.962,-126.205 -72.186,-243.934 -153.627,-346.173c-76.522,-96.054 -178.226,-152.215 -291.766,-191.279c-123.281,-42.474 -250.752,-50.998 -379.441,-44.569c-49.244,2.484 -98.148,13.103 -147.149,20.458c-20.798,3.117 -41.402,7.404 -65.903,11.836c125.523,-53.287 253.968,-75.45 385.384,-77.642c131.806,-2.192 260.251,19.386 381.584,75.548c-152.75,-232.974 -354.258,-414.512 -590.009,-566.775c45.251,-3.946 219.92,85.143 349.68,176.131c106.478,74.719 201.362,162.541 282.17,264.488c81.197,102.386 146.029,214.757 196.15,335.603c50.073,120.749 79.493,246.515 94.203,376.226c-0,-62.152 1.023,-124.304 -0.293,-186.408c-1.315,-63.078 -4.432,-126.156 -7.647,-189.185c-3.166,-62.055 -7.16,-124.11 -11.203,-186.116c-4.043,-62.737 -8.573,-125.425 -12.713,-185.775c-47.442,-52.264 -81.051,-115.342 -146.564,-146.759c2.045,-1.121 4.091,-2.241 6.186,-3.41c-4.482,-11.69 -6.43,-25.328 -13.834,-34.729c-42.863,-54.554 -87.481,-107.695 -130.49,-162.103c-29.323,-37.116 -57.038,-75.547 -83.438,-115.05c83.438,77.934 166.34,156.16 231.074,250.996c31.758,44.666 63.467,89.332 95.225,133.998c2.582,-1.754 5.163,-3.458 7.745,-5.212c-12.372,-19.532 -23.575,-39.99 -37.311,-58.548c-84.461,-114.173 -170.967,-226.934 -253.772,-342.276c-42.133,-58.694 -77.934,-121.869 -117.681,-184.704c20.994,8.33 122.552,111.641 163.272,164.831c47.004,61.421 97.418,120.603 139.843,185.044c41.305,62.688 74.378,130.734 111.689,197.514c3.751,-31.904 -9.206,-59.765 -17.34,-89.234c5.455,9.254 10.91,18.558 19.337,32.829c5.699,-47.783 9.937,-89.965 15.83,-131.854c11.885,-84.607 26.547,-168.825 36.386,-253.626c7.403,-63.614 8.134,-128.007 13.443,-191.913c3.774,-45.472 8.551,-90.852 13.756,-136.19l24.46,0c-7.662,93.993 -15.457,189.319 -23.213,284.606c40.428,-100.292 83.925,-198.976 138.966,-291.717c55.43,-93.472 120.943,-179.93 196.734,-258.887c-5.845,9.206 -12.274,18.071 -17.389,27.667c-39.795,74.816 -79.492,149.73 -118.752,224.839c-3.604,6.917 -4.189,15.441 -7.598,24.842c-6.722,10.326 -13.249,18.509 -17.146,27.812c-25.523,61.13 -50.462,122.454 -75.596,183.778c-3.166,7.745 -6.234,15.49 -9.303,23.283c1.364,0.633 2.679,1.267 4.043,1.9c37.944,-64.88 75.888,-129.809 110.617,-189.185l0,-28.446c18.169,33.853 36.337,67.705 55.09,102.629c30.735,-27.179 62.737,-54.992 100.778,-64.685c-29.956,39.308 -61.957,81.295 -88.357,115.976c33.219,110.91 63.954,213.734 94.738,316.509c1.559,-0.195 3.166,-0.39 4.725,-0.584c-8.037,-59.084 -16.025,-118.119 -24.549,-180.953c32.196,96.443 48.367,192.643 62.542,289.33c14.125,96.443 28.348,192.886 41.84,284.702c-1.997,14.759 -3.36,24.89 -5.309,39.162c43.01,-45.251 65.27,-104.48 126.545,-127.812c1.51,-15.246 3.069,-30.638 4.871,-48.709c-5.26,2.826 -8.085,4.336 -10.959,5.894c-0.244,-1.218 -1.12,-2.874 -0.633,-3.458c20.019,-25.718 18.265,-57.915 25.036,-87.286c21.286,-92.011 40.477,-184.509 61.129,-276.617c5.845,-26.157 14.857,-51.583 20.896,-77.69c1.998,-8.573 1.413,-19.24 -1.948,-27.277c-26.497,-63.419 -47.588,-128.494 -60.496,-195.956c-17.097,-89.039 -34.486,-178.127 -48.027,-267.703c-11.349,-75.011 -17.389,-150.851 -25.767,-226.301c1.997,-0.389 3.946,-0.828 5.943,-1.217c13.735,50.754 29.517,101.119 40.72,152.458c16.707,76.765 31.369,154.066 44.666,231.513c12.177,70.822 20.993,142.18 32.099,213.149c4.189,26.79 10.765,53.239 16.269,79.882c2.825,-0.389 5.699,-0.73 8.524,-1.12c-1.413,-17.973 -1.51,-36.19 -4.433,-53.92c-9.352,-56.454 -20.457,-112.615 -29.566,-169.117c-8.086,-50.121 -13.2,-100.681 -21.821,-150.705c-28.251,-163.759 -25.524,-328.833 -22.845,-494.004c0.487,-31.368 0.098,-62.786 0.926,-94.349c36.629,307.401 56.112,616.555 86.214,925.758c5.115,-15.294 9.742,-30.784 15.343,-45.883c28.446,-77.009 57.72,-153.774 85.289,-231.123c5.115,-14.321 3.995,-30.833 5.845,-46.566c2.972,1.851 5.845,3.946 8.378,5.748c20.068,-50.949 38.48,-101.85 60.204,-151.289c4.306,-9.806 8.473,-19.542 11.997,-29.309l34.042,0.825Zm-960.594,895.791c-7.696,33.22 -10.18,123.72 -3.653,149.585c27.472,-51.534 26.839,-106.672 28.933,-161.226c-8.232,-2.436 -15.879,-4.725 -24.062,-7.16c-0.292,5.552 -0.536,10.569 -1.218,18.801Zm580.365,364.001c3.653,-3.41 7.355,-6.82 10.423,-9.693c5.651,-43.497 11.203,-85.971 16.756,-128.397c-1.169,-0.341 -2.387,-0.633 -3.556,-0.974l-62.542,153.14c1.51,1.169 2.972,2.338 4.482,3.507c10.716,-5.309 21.431,-10.618 34.437,-17.583Zm-71.164,110.812c-9.011,29.225 -24.208,58.109 -25.815,87.724c-3.41,61.86 -4.482,124.646 2.484,186.068c7.16,62.931 24.987,124.645 38.236,186.846c4.725,22.212 9.839,44.277 14.856,66.78c14.516,-208.084 28.982,-415.144 43.448,-622.01c-36.239,3.75 -40.087,5.893 -53.774,38.967c-7.111,17.194 -12.031,35.265 -19.435,55.625Zm-453.137,-642.955c18.071,-24.549 18.071,-24.549 7.745,-35.558c-6.527,15.149 -12.616,29.226 -18.705,43.302c1.364,0.634 2.728,1.218 4.092,1.851c1.607,-2.63 3.215,-5.211 6.868,-9.595Zm646.803,56.015c-16.025,95.615 -40.477,189.964 -44.227,287.43c5.163,-11.349 7.452,-23.185 8.767,-35.168c3.02,-27.423 4.335,-54.846 21.724,-78.713c51.583,-70.774 99.415,-144.519 154.163,-212.711c72.382,-90.16 145.152,-179.784 208.863,-276.422c5.748,-8.67 10.911,-17.779 16.854,-27.521c-46.127,27.521 -90.258,53.872 -136.19,81.295c15.636,10.96 27.374,19.192 43.741,30.687c-18.899,3.458 -32.392,5.942 -45.884,8.426c0.097,0.828 0.146,1.657 0.243,2.485c4.677,0.633 9.304,1.266 13.98,1.899c-0.098,1.461 -0.244,2.874 -0.341,4.335c-12.664,-0.633 -25.28,-1.266 -39.211,-1.948c-1.071,4.14 -2.581,9.839 -5.504,20.896c-1.071,-13.103 -1.705,-20.847 -2.435,-29.42c-5.504,-1.461 -10.667,-2.874 -15.49,-4.14c-5.796,-16.805 -23.38,-27.131 -38.674,-22.601c-14.369,4.237 -28.251,10.423 -42.815,13.395c-26.936,5.504 -41.159,25.864 -47.637,47.783c-18.266,61.811 -32.538,124.743 -49.927,190.013Zm-391.082,1071.2c2.046,135.751 4.091,271.454 6.186,409.056c33.414,-124.499 66.39,-247.392 98.586,-367.264c-3.263,-10.813 -5.65,-18.606 -9.157,-30.15c6.43,4.724 9.06,6.673 12.567,9.254c11.593,-71.407 24.111,-141.158 33.95,-211.298c5.601,-39.99 -10.911,-184.119 -21.724,-211.201c-2.679,9.011 -5.358,15.976 -6.722,23.136c-16.805,86.361 -41.987,170.578 -85.776,246.564c-22.698,39.357 -32.05,77.203 -28.056,120.505c0.146,2.533 0.048,5.066 0.146,11.398Zm740.129,-1443.78c-52.313,22.698 -104.285,46.176 -157.037,67.754c-20.458,8.377 -42.718,12.469 -70.53,20.36c-8.476,10.131 -22.065,26.4 -35.655,42.717c1.072,1.218 2.094,2.436 3.166,3.653c22.747,-10.569 45.348,-21.626 68.485,-31.319c5.309,-2.241 12.566,0.097 18.947,0.243c0.926,0 1.851,-0.389 2.241,-0.487c0.779,-5.796 1.51,-11.251 2.143,-15.928c64.052,-29.858 127.13,-59.229 190.159,-88.601c-0.438,-1.266 -0.828,-2.533 -1.267,-3.799c-6.137,1.364 -12.323,2.728 -20.652,5.407Zm-925.904,185.726c-18.315,31.174 -36.629,62.396 -54.944,93.57l6.43,4.237c70.725,-96.346 141.45,-192.74 212.516,-289.573c-10.131,-25.037 -19.824,-49.099 -31.612,-78.275c-45.445,93.228 -88.065,180.514 -132.39,270.041Zm225.192,214.739c0.699,-3.955 1.393,-7.911 2.083,-11.867c2.045,-11.885 1.948,-24.647 0.194,-36.58c-4.432,-30.395 -9.4,-60.789 -15.927,-90.842c-12.518,-57.282 -26.254,-114.32 -39.503,-171.455c-2.338,-0.487 -4.676,-0.974 -6.965,-1.461c-55.382,95.566 -110.277,191.376 -166.341,286.553c-22.698,38.578 -43.74,79.396 -89.429,97.807c-3.312,35.655 -6.624,71.164 -9.693,106.526c-0,0 0.195,-0.194 -1.461,1.023c-4.092,16.61 -8.183,33.171 -12.908,52.216c8.037,-5.747 13.395,-9.595 20.311,-12.372c1.072,0.926 2.095,1.705 0.828,3.897c-15.684,18.996 -19.532,40.477 -16.804,64.831c5.309,47.442 9.157,95.031 12.859,142.619c2.728,35.119 3.897,70.384 6.527,105.503c5.943,78.909 13.687,157.671 18.12,236.627c3.507,62.835 4.286,125.864 4.286,188.795c0,73.843 -2.387,147.685 -3.166,221.528c-0.536,51.875 -0.097,103.798 -0.097,155.673c6.186,-11.398 9.936,-22.991 13.151,-34.778c32.732,-119.044 68.533,-237.309 96.979,-357.376c18.85,-79.541 31.612,-161.177 38.675,-242.618c5.845,-67.559 2.922,-136.531 -2.679,-204.333c-7.55,-91.963 -21.042,-183.438 -32.732,-275.01c-3.848,-29.956 -10.034,-59.619 -15.149,-89.429c11.739,31.173 21.383,62.737 30.151,94.543c26.254,95.226 38.236,192.644 45.835,290.84c8.767,113.638 5.406,226.886 -16.61,338.672c-16.512,83.828 -36.97,166.974 -58.353,249.73c-24.647,95.274 -52.654,189.623 -78.372,284.654c-7.842,29.03 -12.957,58.791 -19.338,88.211c1.997,0.633 4.043,1.267 6.04,1.851c5.796,-13.979 11.252,-28.105 17.438,-41.938c57.427,-128.202 108.913,-258.595 147.344,-393.908c15.002,-52.849 31.563,-104.87 30.979,-161.518c-0.78,-79.882 1.948,-159.959 7.306,-239.695c5.455,-80.906 15.635,-161.519 24.306,-242.18c6.088,-56.308 11.251,-112.81 20.165,-168.727c12.104,-75.972 26.91,-151.493 40.402,-227.277c-20.234,264.469 -59.814,527.326 -62.175,793.662c21.627,-84.364 43.205,-168.727 65.319,-256.257c23.331,-131.172 20.019,-262.978 9.693,-395.076c7.306,51.533 14.807,103.019 16.853,154.747c2.387,59.668 6.137,120.408 -1.851,179.151c-10.813,79.639 -32.05,157.865 -49.196,236.578c-5.553,25.572 -12.323,50.852 -18.558,76.229c2.192,0.682 4.433,1.364 6.624,2.046c20.02,-46.565 41.159,-92.692 59.62,-139.843c12.226,-31.222 27.228,-63.418 29.517,-96.004c5.017,-70.287 8.037,-141.548 1.997,-211.542c-8.524,-99.123 -25.766,-197.563 -39.648,-296.198c-2.631,-18.899 -6.82,-37.555 -10.278,-56.356c-2.138,0.043 -4.239,0.085 -6.369,0.128Z" style="fill:#9e7202;fill-opacity:0.83;"/><path d="M2018.59,2967.48c37.262,-130.052 84.266,-254.016 166,-361.857c59.424,-78.372 134.387,-138.771 219.432,-187.577c73.794,-42.328 151.777,-73.745 234.387,-93.765c3.507,-0.877 7.452,-0.097 12.372,-0.097c-284.995,164.83 -474.472,404.136 -570.672,717.967c101.266,12.518 230.149,88.503 281.732,167.947c-82.659,-67.559 -169.702,-124.645 -288.259,-120.31c-15.83,71.845 -31.953,145.103 -48.221,218.897l-56.551,-0c6.332,-115.148 14.71,-229.175 49.78,-341.205Z" style="fill:#9e7202;fill-opacity:0.83;fill-rule:nonzero;"/><path d="M1953.07,1893.45c6.283,-100.779 0.877,-199.56 -5.748,-298.293c-1.948,-28.981 -2.484,-58.012 -4.578,-86.994c-6.722,-94.835 -10.326,-190.11 -21.919,-284.361c-9.742,-79.347 -28.884,-157.524 -43.887,-236.189c-0.925,-4.871 -1.656,-9.742 0.828,-15.879c13.785,30.297 29.128,60.009 41.159,91.037c39.941,102.873 77.009,206.866 97.953,315.535c13.785,71.407 28.787,143.642 23.332,216.656c-5.796,77.496 -17.438,154.651 -40.526,229.37c-25.28,81.879 -51.046,163.661 -79.151,244.225c10.813,-57.817 21.578,-115.585 32.537,-175.107Z" style="fill:#9e7202;fill-opacity:0.83;fill-rule:nonzero;"/><path d="M1326.34,1919.51c-3.215,-0.098 -8.329,-0.195 -10.278,-2.728c-76.521,-98.927 -120.262,-212.857 -154.358,-331.901c-45.25,-158.011 -105.941,-310.177 -181.294,-456.401c-1.997,-3.897 -3.068,-8.329 -4.578,-12.47c2.825,-2.289 5.65,-4.627 8.475,-6.916c2.241,5.212 3.799,10.813 6.771,15.489c42.23,67.072 86.506,132.926 126.447,201.362c36.727,62.932 71.651,127.276 102.045,193.471c33.707,73.356 63.175,148.805 90.988,224.645c15.733,42.912 13.541,88.65 7.16,134.095c-1.851,12.81 5.212,26.838 8.622,41.354Z" style="fill:#9e7202;fill-opacity:0.83;fill-rule:nonzero;"/><path d="M2217.17,1153.03c-12.518,-3.994 -14.613,5.991 -17.633,13.687c-16.463,42.085 -32.489,84.315 -48.855,126.448c-3.75,9.693 -8.134,19.191 -13.2,29.761c-0.925,1.023 -0.828,1.315 -0.828,1.315c1.315,-88.601 -1.023,-177.494 5.017,-265.803c6.381,-92.644 21.091,-184.704 31.661,-277.104c6.576,-57.379 12.128,-114.904 18.168,-172.38c0.195,-1.657 0.78,-3.264 4.53,-5.164c4.725,37.165 9.45,74.33 14.174,111.543c9.693,-4.189 19.192,-8.28 31.564,-13.638c6.77,16.951 12.761,31.807 18.753,46.712c-1.462,0.535 -2.923,1.12 -4.384,1.656c3.068,5.65 6.088,11.251 8.913,16.512c-5.358,1.266 -9.303,2.192 -14.612,3.458c2.533,5.845 4.676,10.814 5.504,16.805c-8.816,-5.943 -16.318,-12.811 -23.819,-19.727c-1.607,1.218 -3.166,2.435 -4.773,3.653c2.484,20.993 6.624,41.938 7.16,62.98c1.9,74.184 3.751,148.416 3.069,222.551c-0.293,30.832 -6.722,61.762 -24.89,88.26c1.607,3.068 3.019,5.747 4.481,8.475Z" style="fill:#9e7202;fill-opacity:0.83;fill-rule:nonzero;"/><path d="M1340.03,3112.39c29.42,62.542 42.815,127.616 49.829,196.052l-48.806,0c-3.799,-14.125 -7.794,-29.42 -12.08,-44.666c-20.409,-72.283 -54.408,-137.164 -107.013,-191.328c-64.198,-66.146 -140.184,-114.66 -228.249,-141.401c-62.055,-18.85 -125.912,-31.758 -188.99,-47.345c-2.192,-0.536 -4.238,-1.705 -6.04,-6.43c40.428,0 80.954,-1.412 121.334,0.293c90.5,3.75 177.543,22.454 257.035,67.754c69.654,39.697 126.156,92.985 162.98,167.071Z" style="fill:#9e7202;fill-opacity:0.83;fill-rule:nonzero;"/><path d="M2564.12,1076.61c151.923,-28.3 303.602,-33.609 455.962,-30.443c-242.959,54.992 -488.743,96.054 -732.822,158.888c78.323,-77.057 170.285,-116.706 276.86,-128.445Z" style="fill:#9e7202;fill-opacity:0.83;fill-rule:nonzero;"/><path d="M2136.41,1323.86c-0.098,37.798 -0.098,75.693 -0.098,113.637c-1.364,0.049 -2.727,0.098 -4.043,0.146c-10.228,-120.505 -20.506,-241.011 -30.735,-361.516c1.608,-0.146 3.264,-0.292 4.871,-0.438c6.137,61.178 11.982,122.356 18.607,183.485c2.289,20.945 6.527,41.695 10.764,63.809c0.877,1.266 0.78,0.974 0.634,0.877Z" style="fill:#9e7202;fill-opacity:0.83;fill-rule:nonzero;"/><path d="M1121.23,1941.38c2.436,-8.427 3.751,-16.415 5.066,-24.549l14.564,-0c11.349,6.575 22.406,12.956 36.093,20.847c0.146,2.63 0.585,10.131 1.023,18.168c13.444,9.937 27.033,20.02 40.623,30.102c-0.779,0.877 -1.559,1.754 -2.338,2.631c-30.394,-12.226 -60.788,-24.306 -91.085,-36.727c-3.215,-1.315 -5.797,-4.237 -8.67,-6.381c1.217,-1.217 2.435,-2.435 4.724,-4.091Z" style="fill:#9e7202;fill-opacity:0.83;fill-rule:nonzero;"/><path d="M2107.77,2137.97c-1.997,-0.682 -2.679,-1.363 -3.312,-2.094c3.215,-1.802 6.283,-3.994 9.644,-5.309c19.337,-7.648 37.847,-16.123 43.302,-40.575c5.066,2.582 8.378,4.287 11.593,5.991c9.157,-7.549 18.119,-14.904 29.274,-24.062c-0.633,8.524 -1.072,14.175 -1.608,21.042c6.479,-2.727 11.544,-4.87 21.043,-8.865c-7.258,5.943 -10.96,8.963 -16.464,13.493c4.092,2.094 7.063,3.604 11.641,5.894c-7.549,5.406 -14.223,10.131 -20.847,14.856c-26.351,6.332 -56.746,2.289 -84.266,19.629Z" style="fill:#9e7202;fill-opacity:0.83;fill-rule:nonzero;"/><path d="M1201.35,2043.33c9.401,3.41 18.899,7.94 27.764,12.226c-0.633,-4.53 -1.51,-11.105 -2.435,-17.681c1.023,-0.585 2.045,-1.12 3.02,-1.705c6.429,8.475 12.81,16.902 19.678,26.011c3.069,-4.774 5.845,-9.109 8.621,-13.395c1.949,0.438 3.897,0.876 5.845,1.315c-1.558,7.793 -3.263,15.587 -4.627,23.429c-1.461,8.426 -2.581,16.853 -4.481,29.517c-4.774,-9.206 -7.891,-15.294 -11.057,-21.334c-0.097,1.753 -0.195,3.507 -0.341,5.26c-9.352,-0.974 -22.99,1.462 -27.082,-3.702c-8.329,-10.521 -27.374,-19.532 -14.905,-39.941Z" style="fill:#9e7202;fill-opacity:0.83;fill-rule:nonzero;"/><path d="M1419.81,2031.88c18.168,-17.584 36.385,-35.606 56.551,-51.096c5.26,-4.043 20.603,-3.799 24.062,0.439c7.403,9.059 6.819,21.821 -6.138,28.251c-9.108,4.481 -19.532,10.131 -28.933,9.449c-16.512,-1.169 -29.127,2.777 -40.476,15.684c-2.241,-0.584 -3.264,-1.363 -5.066,-2.727Z" style="fill:#9e7202;fill-opacity:0.83;fill-rule:nonzero;"/><path d="M1414.55,1991.65c5.504,-15.197 12.47,-30.15 16.366,-45.883c7.502,-30.395 20.75,-56.746 42.718,-79.736c23.234,-24.306 43.984,-50.901 67.462,-78.373c1.266,5.115 3.75,9.206 2.63,11.398c-22.698,43.789 -44.276,88.26 -69.41,130.588c-13.541,22.796 -33.268,41.938 -50.462,62.493c-1.023,1.218 -4.384,0.439 -7.794,-0.097c-1.169,-0.731 -1.364,-0.487 -1.51,-0.39Z" style="fill:#9e7202;fill-opacity:0.83;fill-rule:nonzero;"/></g></g></g></svg>