<?xml version="1.0" encoding="UTF-8" standalone="no"?>
<!DOCTYPE svg PUBLIC "-//W3C//DTD SVG 1.1//EN" "http://www.w3.org/Graphics/SVG/1.1/DTD/svg11.dtd">
<svg width="100%" height="100%" viewBox="0 0 4267 4267" version="1.1" xmlns="http://www.w3.org/2000/svg" xmlns:xlink="http://www.w3.org/1999/xlink" xml:space="preserve" style="fill-rule:evenodd;clip-rule:evenodd;stroke-miterlimit:1.41421;">
    <g transform="matrix(1,0,0,1,-1,6.82121e-13)">
        <rect x="0" y="0" width="4266.67" height="4266.67" style="fill:rgb(59,73,157);"/>
    </g>
    <g transform="matrix(3.2017,0,0,3.2017,918.609,1884.4)">
        <g transform="matrix(6.51598,0,0,6.51598,-134,-438.526)">
            <path d="M59.663,140.713C59.408,147.579 54.933,149.923 44.457,150.439C50.224,155.353 56.146,158.22 62.969,154.553C69.153,151.229 74.324,144.266 70.512,138.427C69.498,135.483 59.967,132.493 59.663,140.713Z" style="fill:white;fill-rule:nonzero;"/>
        </g>
        <g transform="matrix(6.51598,0,0,6.51598,-134,-438.526)">
            <path d="M59.663,140.713C59.408,147.579 54.933,149.923 44.457,150.439C50.224,155.353 56.146,158.22 62.969,154.553C69.153,151.229 74.324,144.266 70.512,138.427C69.498,135.483 59.967,132.493 59.663,140.713Z" style="fill:none;stroke:white;stroke-width:0.05px;"/>
        </g>
        <g transform="matrix(6.51598,0,0,6.51598,-134,-438.526)">
            <path d="M60.952,115.187C56.479,96.04 62.423,75.801 59.061,56.248C57.306,46.043 52.022,38.281 42.58,33.765C40.217,32.635 39.582,31.253 39.521,28.817C39.38,23.284 35.518,20.048 31.273,17.65C18.42,10.387 10.342,9.89 2.981,14.111C1.875,15.205 1.167,17.279 1.109,17.466C0.368,19.846 0.478,22.163 0.475,22.506C1.698,20.571 3.247,17.781 4.814,17.111C11.222,14.371 17.406,14.675 24.92,19.892C27.354,21.582 28.075,22.692 30.216,24.661C31.799,26.116 32.992,29.08 30.361,30.159C14.217,36.779 16.93,51.56 16.167,64.113C15.352,77.513 16.822,91.042 16.985,104.517C17.033,108.517 16.111,112.541 15.489,116.532C15.149,118.711 14.501,121.065 11.6,120.697C9.086,120.379 7.934,118.804 8.527,116.068C8.911,114.297 9.456,111.946 6.848,111.499C4.788,111.145 3.496,113.011 2.419,114.551C-0.394,118.575 0.08,122.863 2.34,126.781C3.932,129.542 7.538,131.572 9.724,128.823C14.22,123.172 22.501,119.63 21.258,110.325C21.173,109.691 21.885,108.951 22.307,108.097C24.239,110.859 23.796,113.988 22.515,115.974C18.329,122.457 24.242,128.365 22.871,134.926C21.508,141.449 26.807,138.259 29.822,136.962C29.843,139.986 25.981,139.409 26.27,142.157C34.144,140.498 34.144,140.498 38.757,120.469C42.248,129.125 35.794,140.037 45.463,146.7C47.741,144.535 44.623,143.17 45.46,140.707C47.06,141.887 48.54,142.977 49.64,143.789C51.333,133.09 50.684,122.41 50.865,109.492C54.409,115.719 55.566,126.558 59.818,131.675C59.565,126.792 57.629,117.919 57.379,113.096C58.408,114.806 59.014,115.483 59.318,116.247C62.767,124.914 63.002,123.961 60.952,115.187Z" style="fill:white;fill-rule:nonzero;"/>
        </g>
        <g transform="matrix(6.51598,0,0,6.51598,-134,-438.526)">
            <path d="M60.952,115.187C56.479,96.04 62.423,75.801 59.061,56.248C57.306,46.043 52.022,38.281 42.58,33.765C40.217,32.635 39.582,31.253 39.521,28.817C39.38,23.284 35.518,20.048 31.273,17.65C18.42,10.387 10.342,9.89 2.981,14.111C2.861,14.308 0.475,21.66 0.475,22.506C0.603,22.996 0.48,21.996 0.475,22.506C1.698,20.571 3.247,17.781 4.814,17.111C11.222,14.371 17.406,14.675 24.92,19.892C27.354,21.582 28.075,22.692 30.216,24.661C31.799,26.116 32.992,29.08 30.361,30.159C14.217,36.779 16.93,51.56 16.167,64.113C15.352,77.513 16.822,91.042 16.985,104.517C17.033,108.517 16.111,112.541 15.489,116.532C15.149,118.711 14.501,121.065 11.6,120.697C9.086,120.379 7.934,118.804 8.527,116.068C8.911,114.297 9.456,111.946 6.848,111.499C4.788,111.145 3.496,113.011 2.419,114.551C-0.394,118.575 0.08,122.863 2.34,126.781C3.932,129.542 7.538,131.572 9.724,128.823C14.22,123.172 22.501,119.63 21.258,110.325C21.173,109.691 21.885,108.951 22.307,108.097C24.239,110.859 23.796,113.988 22.515,115.974C18.329,122.457 24.242,128.365 22.871,134.926C21.508,141.449 26.807,138.259 29.822,136.962C29.843,139.986 25.981,139.409 26.27,142.157C34.144,140.498 34.144,140.498 38.757,120.469C42.248,129.125 35.794,140.037 45.463,146.7C47.741,144.535 44.623,143.17 45.46,140.707C47.06,141.887 48.54,142.977 49.64,143.789C51.333,133.09 50.684,122.41 50.865,109.492C54.409,115.719 55.566,126.558 59.818,131.675C59.565,126.792 57.629,117.919 57.379,113.096C58.408,114.806 59.014,115.483 59.318,116.247C62.767,124.914 63.002,123.961 60.952,115.187Z" style="fill:none;stroke:white;stroke-width:0.05px;"/>
        </g>
        <g transform="matrix(6.51598,0,0,6.51598,-134,-438.526)">
            <path d="M17.199,134.362C17.63,132.271 17.576,129.691 14.651,129.436C11.83,129.188 10.443,131.3 9.637,133.774C7.163,141.371 14.487,149.064 25.943,148.589C19.221,144.934 15.84,140.955 17.199,134.362Z" style="fill:white;fill-rule:nonzero;"/>
        </g>
        <g transform="matrix(6.51598,0,0,6.51598,-134,-438.526)">
            <path d="M17.199,134.362C17.63,132.271 17.576,129.691 14.651,129.436C11.83,129.188 10.443,131.3 9.637,133.774C7.163,141.371 14.487,149.064 25.943,148.589C19.221,144.934 15.84,140.955 17.199,134.362Z" style="fill:none;stroke:white;stroke-width:0.05px;"/>
        </g>
        <g transform="matrix(6.51598,0,0,6.51598,-134,-438.526)">
            <path d="M147.471,112.374C141.516,110.906 135.724,116.105 128.19,111.061C132.453,120.085 138.686,122.452 145.388,123.71C150.156,124.604 154.156,122.911 154.955,117.598C155.898,111.336 150.757,113.184 147.471,112.374Z" style="fill:white;fill-rule:nonzero;"/>
        </g>
        <g transform="matrix(6.51598,0,0,6.51598,-134,-438.526)">
            <path d="M147.471,112.374C141.516,110.906 135.724,116.105 128.19,111.061C132.453,120.085 138.686,122.452 145.388,123.71C150.156,124.604 154.156,122.911 154.955,117.598C155.898,111.336 150.757,113.184 147.471,112.374Z" style="fill:none;stroke:white;stroke-width:0.05px;"/>
        </g>
        <g transform="matrix(6.51598,0,0,6.51598,-134,-438.526)">
            <path d="M151.993,84.91C149.465,86.998 151.301,90.113 149.109,91.811C146.905,93.519 144.553,95.215 141.766,94.398C138.554,93.455 140.611,90.783 140.688,88.883C141.111,78.29 134.986,69.921 126.436,69.587C124.842,69.525 122.867,69.064 121.97,70.655C120.998,72.379 122.782,73.452 123.761,74.675C129.69,82.092 128.819,89.029 121.421,94.157C118.573,96.131 114.988,96.724 113.812,93.391C111.269,86.182 104.644,86.898 98.426,84.532C105.662,82.902 111.038,84.571 116.077,88.196C118.446,89.9 121.165,92.192 123.733,88.633C125.745,85.845 126.433,82.72 123.874,79.699C123.35,79.082 122.816,78.465 122.379,77.782C113.79,64.365 117.066,70.162 127.077,66.115C123.544,59.129 110.679,46.21 100.53,39.441C98.554,38.125 96.037,36.877 93.762,38.751C90.854,41.146 93.749,43.005 94.728,44.994C98.233,52.113 101.797,59.205 105.234,66.357C106.484,68.958 107.965,71.606 106.765,75.691C102.289,71.083 100.576,65.756 98.147,60.878C95.268,55.094 92.466,49.271 89.509,43.527C88.1,40.789 85.657,39.844 82.677,40.537C80.085,41.138 79.605,43.296 79.297,45.498C77.801,56.199 79.328,66.46 83.832,76.276C86.297,81.648 89.007,86.852 90.975,92.501C92.867,97.931 96.745,106.036 104.214,109.08C100.254,111.678 96.193,113.487 91.88,109.781C90.21,108.346 89.492,104.64 86.425,106.698C83.608,108.587 82.861,112.122 82.835,115.358C82.812,118.18 84.279,120.645 87.272,121.469C92.39,122.877 97.368,122.941 102.011,119.688C103.617,118.562 105.768,116.516 107.053,120.12C107.885,122.452 107.531,124.564 104.651,125.031C102.251,125.42 99.185,125.043 100.375,128.9C101.265,131.788 103.02,134.277 106.392,134.857C114.892,136.319 126.038,124.186 123.858,115.78C123.543,114.566 122.951,113.095 122.005,112.455C120.794,111.635 119.207,112.425 118.665,113.728C117.488,116.56 115.813,120.143 112.963,116.573C110.948,114.049 107.637,108.759 112.858,106.039C119.774,102.436 122.975,95.116 129.567,91.008C131.378,99.424 136.283,104.093 144.923,104.703C149.033,104.993 154.823,110.263 156.516,102.904C158.043,96.265 155.931,90.463 151.993,84.91Z" style="fill:white;fill-rule:nonzero;"/>
        </g>
        <g transform="matrix(6.51598,0,0,6.51598,-134,-438.526)">
            <path d="M151.993,84.91C149.465,86.998 151.301,90.113 149.109,91.811C146.905,93.519 144.553,95.215 141.766,94.398C138.554,93.455 140.611,90.783 140.688,88.883C141.111,78.29 134.986,69.921 126.436,69.587C124.842,69.525 122.867,69.064 121.97,70.655C120.998,72.379 122.782,73.452 123.761,74.675C129.69,82.092 128.819,89.029 121.421,94.157C118.573,96.131 114.988,96.724 113.812,93.391C111.269,86.182 104.644,86.898 98.426,84.532C105.662,82.902 111.038,84.571 116.077,88.196C118.446,89.9 121.165,92.192 123.733,88.633C125.745,85.845 126.433,82.72 123.874,79.699C123.35,79.082 122.816,78.465 122.379,77.782C113.79,64.365 117.066,70.162 127.077,66.115C123.544,59.129 110.679,46.21 100.53,39.441C98.554,38.125 96.037,36.877 93.762,38.751C90.854,41.146 93.749,43.005 94.728,44.994C98.233,52.113 101.797,59.205 105.234,66.357C106.484,68.958 107.965,71.606 106.765,75.691C102.289,71.083 100.576,65.756 98.147,60.878C95.268,55.094 92.466,49.271 89.509,43.527C88.1,40.789 85.657,39.844 82.677,40.537C80.085,41.138 79.605,43.296 79.297,45.498C77.801,56.199 79.328,66.46 83.832,76.276C86.297,81.648 89.007,86.852 90.975,92.501C92.867,97.931 96.745,106.036 104.214,109.08C100.254,111.678 96.193,113.487 91.88,109.781C90.21,108.346 89.492,104.64 86.425,106.698C83.608,108.587 82.861,112.122 82.835,115.358C82.812,118.18 84.279,120.645 87.272,121.469C92.39,122.877 97.368,122.941 102.011,119.688C103.617,118.562 105.768,116.516 107.053,120.12C107.885,122.452 107.531,124.564 104.651,125.031C102.251,125.42 99.185,125.043 100.375,128.9C101.265,131.788 103.02,134.277 106.392,134.857C114.892,136.319 126.038,124.186 123.858,115.78C123.543,114.566 122.951,113.095 122.005,112.455C120.794,111.635 119.207,112.425 118.665,113.728C117.488,116.56 115.813,120.143 112.963,116.573C110.948,114.049 107.637,108.759 112.858,106.039C119.774,102.436 122.975,95.116 129.567,91.008C131.378,99.424 136.283,104.093 144.923,104.703C149.033,104.993 154.823,110.263 156.516,102.904C158.043,96.265 155.931,90.463 151.993,84.91Z" style="fill:none;stroke:white;stroke-width:0.05px;"/>
        </g>
        <g transform="matrix(6.51598,0,0,6.51598,-134,-438.526)">
            <path d="M92.477,32.603C97.759,29.495 98.582,24.038 94.148,15.036C93.886,21.286 92.543,25.721 87.764,28.26C85.432,29.499 83.127,30.576 81.192,28.356C78.926,25.753 82.12,24.79 83.324,23.323C86.7,19.214 88.291,15.073 84.126,10.526C81.861,11.171 82.774,12.692 82.919,13.789C83.337,16.962 81.979,18.968 79.12,20.094C76.004,21.322 73.98,19.604 72.193,17.41C66.44,10.345 60.754,3.258 50.632,2.404C40.8,1.574 32.096,4.102 22.346,10.515C29.041,12.079 32.733,9.12 36.844,8.656C54.455,6.669 66.765,15.083 76.293,28.771C82.29,37.387 83.603,37.824 92.477,32.603Z" style="fill:white;fill-rule:nonzero;"/>
        </g>
        <g transform="matrix(6.51598,0,0,6.51598,-134,-438.526)">
            <path d="M92.477,32.603C97.759,29.495 98.582,24.038 94.148,15.036C93.886,21.286 92.543,25.721 87.764,28.26C85.432,29.499 83.127,30.576 81.192,28.356C78.926,25.753 82.12,24.79 83.324,23.323C86.7,19.214 88.291,15.073 84.126,10.526C81.861,11.171 82.774,12.692 82.919,13.789C83.337,16.962 81.979,18.968 79.12,20.094C76.004,21.322 73.98,19.604 72.193,17.41C66.44,10.345 60.754,3.258 50.632,2.404C40.8,1.574 32.096,4.102 22.346,10.515C29.041,12.079 32.733,9.12 36.844,8.656C54.455,6.669 66.765,15.083 76.293,28.771C82.29,37.387 83.603,37.824 92.477,32.603Z" style="fill:none;stroke:white;stroke-width:0.05px;"/>
        </g>
        <g transform="matrix(6.51598,0,0,6.51598,-134,-438.526)">
            <path d="M24.262,42.646C22.063,52.866 19.113,91.277 25.163,101.573C25.837,91.326 23.264,52.923 24.262,42.646Z" style="fill:rgb(59,73,157);fill-rule:nonzero;"/>
        </g>
        <g transform="matrix(6.51598,0,0,6.51598,-134,-438.526)">
            <path d="M40.189,44.129C40.375,53.185 41.891,78.279 42.077,87.335C44.734,78.395 43.633,53.376 40.189,44.129Z" style="fill:rgb(59,73,157);fill-rule:nonzero;"/>
        </g>
        <g transform="matrix(6.51598,0,0,6.51598,-134,-438.526)">
            <path d="M54.876,101.49C54.846,95.989 53.791,74.325 53.76,68.823C49.253,74.343 51.178,96.018 54.876,101.49Z" style="fill:rgb(59,73,157);fill-rule:nonzero;"/>
        </g>
        <g transform="matrix(6.51598,0,0,6.51598,-134,-438.526)">
            <path d="M103.279,104.189C110.101,100.346 109.432,96.655 99.609,90.545C102.897,95.509 106.511,99.324 103.359,104.403C103.364,104.419 103.279,104.189 103.279,104.189Z" style="fill:rgb(59,73,157);fill-rule:nonzero;"/>
        </g>
        <g transform="matrix(6.51598,0,0,6.51598,-134,-438.526)">
            <path d="M122.047,105.781C123.99,106.24 125.569,106.713 126.529,106.275C126.906,106.103 127.275,105.896 127.535,105.574C127.806,105.239 127.974,104.767 127.793,104.376C127.653,104.074 127.344,103.894 127.055,103.727C126.339,103.312 125.627,102.842 125.155,102.162C124.684,101.483 124.5,100.547 124.896,99.821C125.327,99.032 126.302,98.701 127.2,98.677C128.985,98.63 130.7,99.533 131.953,100.805C133.205,102.076 134.05,103.691 134.753,105.332C134.989,105.884 135.216,106.491 135.062,107.071C134.96,107.455 134.7,107.779 134.411,108.052C133.499,108.913 132.218,109.37 130.966,109.278C130.396,109.237 129.834,109.087 129.261,109.091C127.773,109.1 126.214,110.119 124.898,109.423C124.898,109.423 118.914,105.04 122.047,105.781Z" style="fill:white;fill-rule:nonzero;"/>
        </g>
        <g transform="matrix(6.51598,0,0,6.51598,-134,-438.526)">
            <path d="M122.047,105.781C123.99,106.24 125.569,106.713 126.529,106.275C126.906,106.103 127.275,105.896 127.535,105.574C127.806,105.239 127.974,104.767 127.793,104.376C127.653,104.074 127.344,103.894 127.055,103.727C126.339,103.312 125.627,102.842 125.155,102.162C124.684,101.483 124.5,100.547 124.896,99.821C125.327,99.032 126.302,98.701 127.2,98.677C128.985,98.63 130.7,99.533 131.953,100.805C133.205,102.076 134.05,103.691 134.753,105.332C134.989,105.884 135.216,106.491 135.062,107.071C134.96,107.455 134.7,107.779 134.411,108.052C133.499,108.913 132.218,109.37 130.966,109.278C130.396,109.237 129.834,109.087 129.261,109.091C127.773,109.1 126.214,110.119 124.898,109.423C124.898,109.423 118.914,105.04 122.047,105.781Z" style="fill:none;stroke:white;stroke-width:0.05px;"/>
        </g>
        <g transform="matrix(6.51598,0,0,6.51598,-134,-438.526)">
            <path d="M93.411,83.081C91.905,76.882 84.921,52.72 83.415,46.521C79.806,53.955 87.774,77.895 93.411,83.081Z" style="fill:rgb(59,73,157);fill-rule:nonzero;"/>
        </g>
        <g transform="matrix(6.51598,0,0,6.51598,-134,-438.526)">
            <path d="M99.571,44.035C102.142,48.282 112.987,64.576 115.557,68.823C116.493,62.461 104.97,46.562 99.571,44.035Z" style="fill:rgb(59,73,157);fill-rule:nonzero;"/>
        </g>
        <g transform="matrix(6.51598,0,0,6.51598,-134,-438.526)">
            <path d="M64.215,124.507C66.429,126.484 68.156,128.22 69.734,128.344C70.353,128.392 70.987,128.391 71.563,128.164C72.161,127.927 72.725,127.442 72.772,126.812C72.809,126.324 72.533,125.872 72.276,125.451C71.639,124.408 71.046,123.296 70.921,122.087C70.797,120.879 71.236,119.546 72.283,118.898C73.421,118.194 74.941,118.467 76.137,119.078C78.512,120.292 80.105,122.675 80.823,125.202C81.542,127.728 81.476,130.403 81.206,133.01C81.115,133.886 80.97,134.826 80.347,135.46C79.934,135.88 79.358,136.11 78.781,136.254C76.959,136.708 74.947,136.377 73.372,135.366C72.653,134.905 72.025,134.312 71.271,133.907C69.313,132.856 66.527,133.048 65.307,131.216C65.307,131.216 60.644,121.319 64.215,124.507Z" style="fill:white;fill-rule:nonzero;"/>
        </g>
        <g transform="matrix(6.51598,0,0,6.51598,-134,-438.526)">
            <path d="M64.215,124.507C66.429,126.484 68.156,128.22 69.734,128.344C70.353,128.392 70.987,128.391 71.563,128.164C72.161,127.927 72.725,127.442 72.772,126.812C72.809,126.324 72.533,125.872 72.276,125.451C71.639,124.408 71.046,123.296 70.921,122.087C70.797,120.879 71.236,119.546 72.283,118.898C73.421,118.194 74.941,118.467 76.137,119.078C78.512,120.292 80.105,122.675 80.823,125.202C81.542,127.728 81.476,130.403 81.206,133.01C81.115,133.886 80.97,134.826 80.347,135.46C79.934,135.88 79.358,136.11 78.781,136.254C76.959,136.708 74.947,136.377 73.372,135.366C72.653,134.905 72.025,134.312 71.271,133.907C69.313,132.856 66.527,133.048 65.307,131.216C65.307,131.216 60.644,121.319 64.215,124.507Z" style="fill:none;stroke:white;stroke-width:0.05px;"/>
        </g>
    </g>
</svg>
